<!DOCTYPE svg PUBLIC "-//W3C//DTD SVG 20010904//EN" "http://www.w3.org/TR/2001/REC-SVG-20010904/DTD/svg10.dtd">
<svg version="1.0" xmlns="http://www.w3.org/2000/svg" width="1142px" height="462px" viewBox="0 0 11420 4620" preserveAspectRatio="xMidYMid meet">
<g id="layer101" fill="#5a4816" stroke="none">
 <path d="M26 4568 c-3 -13 -6 -455 -6 -984 0 -733 3 -963 12 -972 9 -9 166 -12 643 -12 629 0 655 1 655 32 0 4 -279 8 -619 8 -341 0 -626 3 -635 6 -14 6 -16 100 -16 964 0 801 -2 959 -14 969 -11 9 -15 7 -20 -11z"/>
 <path d="M1477 4583 c-4 -3 -7 -446 -7 -983 0 -746 3 -979 12 -988 9 -9 166 -12 643 -12 627 0 655 1 655 32 0 4 -279 8 -620 8 -340 0 -626 3 -635 6 -13 5 -15 109 -15 958 -1 771 -3 954 -14 968 -7 10 -16 15 -19 11z"/>
 <path d="M2910 3607 c0 -751 3 -986 12 -995 19 -19 1271 -17 1287 2 9 11 8 15 -5 20 -8 3 -287 6 -619 6 -332 0 -610 3 -619 6 -14 6 -16 99 -16 958 -1 960 -2 986 -34 986 -3 0 -6 -442 -6 -983z"/>
 <path d="M4350 3609 c0 -753 3 -988 12 -997 9 -9 166 -12 644 -12 533 0 633 2 637 14 3 8 3 17 0 20 -4 3 -280 6 -614 6 -334 0 -614 3 -623 6 -14 6 -16 99 -16 959 0 939 0 952 -20 970 -20 18 -20 17 -20 -966z"/>
 <path d="M5790 3609 c0 -753 3 -988 12 -997 9 -9 166 -12 644 -12 533 0 633 2 637 14 3 8 3 17 0 20 -4 3 -280 6 -614 6 -334 0 -614 3 -623 6 -14 6 -16 99 -16 959 0 939 0 952 -20 970 -20 18 -20 17 -20 -966z"/>
 <path d="M7230 3609 c0 -753 3 -988 12 -997 16 -16 1278 -18 1278 -2 0 6 1 13 3 18 1 4 -279 9 -623 12 l-625 5 -3 956 c-2 941 -2 956 -22 974 -20 18 -20 17 -20 -966z"/>
 <path d="M8670 3609 c0 -753 3 -988 12 -997 19 -19 1261 -17 1277 1 6 8 8 17 4 20 -3 4 -284 7 -623 7 -511 0 -620 2 -629 14 -8 10 -11 267 -11 962 1 838 -1 949 -15 963 -13 14 -15 -86 -15 -970z"/>
 <path d="M10110 3608 c0 -752 3 -987 12 -996 19 -19 1261 -17 1277 1 6 8 8 17 4 20 -3 4 -284 7 -623 7 -466 0 -619 3 -628 12 -9 9 -12 236 -12 961 0 830 -2 950 -15 963 -13 14 -15 -94 -15 -968z"/>
 <path d="M3410 4466 c-121 -34 -237 -133 -291 -248 l-34 -73 0 -490 c0 -488 0 -490 23 -550 13 -33 34 -79 47 -101 30 -52 112 -126 169 -153 51 -25 164 -51 221 -51 58 0 171 26 222 51 111 54 209 188 238 326 22 102 21 874 0 958 -43 164 -165 290 -320 331 -62 17 -215 17 -275 0z m213 -242 c46 -23 66 -43 91 -89 21 -39 21 -49 21 -490 l0 -450 -23 -47 c-34 -68 -72 -92 -152 -96 -90 -5 -144 23 -180 93 l-25 50 0 451 0 451 30 49 c38 61 93 94 158 94 26 0 62 -7 80 -16z"/>
 <path d="M4854 4465 c-69 -22 -195 -98 -216 -130 -3 -5 -18 -23 -32 -40 -15 -16 -36 -55 -49 -85 -22 -54 -22 -65 -25 -530 -4 -508 -1 -542 45 -634 36 -72 130 -161 205 -196 138 -64 320 -61 454 8 60 30 136 104 167 159 52 97 75 253 41 287 -12 13 -38 16 -117 16 -56 0 -108 -4 -115 -8 -7 -5 -17 -37 -23 -73 -12 -74 -42 -133 -82 -163 -23 -17 -43 -21 -110 -21 -101 0 -133 19 -172 100 l-26 55 3 449 3 449 31 44 c64 88 165 112 258 60 78 -43 96 -86 96 -232 0 -77 -4 -120 -12 -128 -7 -7 -41 -12 -83 -12 -42 0 -76 -5 -83 -12 -14 -14 -16 -166 -2 -188 8 -12 45 -16 215 -18 148 -2 211 0 221 9 11 9 14 55 14 243 0 253 -8 310 -56 392 -28 47 -129 141 -179 167 -88 44 -279 61 -371 32z"/>
 <path d="M9165 4465 c-116 -36 -212 -114 -258 -209 -33 -67 -44 -107 -52 -187 -6 -64 -5 -67 21 -88 23 -18 40 -21 115 -21 109 0 129 14 129 85 0 49 20 108 48 138 44 50 159 72 225 43 39 -16 82 -61 96 -99 26 -68 6 -173 -42 -226 -12 -13 -92 -76 -177 -141 -219 -165 -271 -210 -323 -280 -175 -232 -67 -563 211 -651 84 -26 231 -29 315 -6 139 37 242 146 283 299 17 65 18 170 2 186 -14 14 -205 17 -226 3 -8 -4 -17 -37 -22 -73 -16 -132 -74 -188 -197 -188 -105 0 -163 61 -163 169 0 90 26 129 148 224 359 279 442 367 478 508 21 82 13 178 -23 268 -43 110 -167 212 -297 247 -63 17 -237 17 -291 -1z"/>
 <path d="M10615 4465 c-73 -23 -139 -62 -188 -111 -75 -76 -110 -157 -122 -283 -10 -97 -1 -105 120 -109 89 -4 98 -2 121 19 18 17 24 33 24 66 0 113 78 193 190 193 84 0 153 -44 179 -113 17 -43 13 -127 -8 -172 -22 -50 -60 -83 -283 -250 -188 -141 -252 -205 -299 -304 -61 -124 -47 -289 34 -407 47 -69 143 -139 225 -164 80 -25 211 -30 292 -11 190 45 319 214 320 416 0 34 -5 66 -12 73 -14 14 -205 17 -226 3 -8 -4 -17 -37 -22 -73 -16 -132 -75 -188 -196 -188 -60 0 -96 15 -133 54 -20 21 -25 39 -29 100 -4 67 -2 79 21 118 14 25 60 70 107 108 46 36 128 101 184 145 138 108 245 219 278 285 81 164 50 361 -75 483 -61 59 -136 103 -211 123 -63 17 -237 17 -291 -1z"/>
 <path d="M243 4455 l-23 -16 0 -792 c1 -643 3 -795 14 -809 12 -16 35 -18 232 -18 322 1 411 16 523 91 140 93 208 266 182 461 -16 116 -54 197 -133 283 -59 63 -78 76 -140 100 -66 25 -89 28 -228 32 -127 4 -157 8 -167 21 -10 12 -13 92 -13 321 0 175 -4 312 -10 321 -14 23 -207 27 -237 5z m534 -914 c72 -33 113 -120 113 -241 0 -86 -14 -133 -53 -177 -47 -53 -80 -63 -211 -63 -104 0 -116 2 -126 19 -15 29 -14 453 2 469 8 8 50 12 123 12 86 0 119 -4 152 -19z"/>
 <path d="M1682 4454 l-22 -15 0 -792 c1 -667 3 -795 15 -811 13 -17 29 -18 282 -13 281 5 317 10 417 57 27 13 76 49 108 81 96 94 135 205 125 359 -8 144 -60 243 -174 332 -62 49 -64 53 -58 85 3 19 17 60 30 91 62 146 225 576 225 592 0 37 -38 50 -146 50 -121 0 -138 -9 -164 -91 -10 -30 -32 -92 -50 -139 -17 -47 -37 -103 -45 -125 -24 -72 -83 -229 -104 -277 l-20 -48 -74 0 c-43 0 -78 5 -85 12 -9 9 -12 95 -12 326 0 288 -1 316 -17 328 -27 20 -202 19 -231 -2z m511 -927 c45 -20 104 -88 118 -139 18 -69 7 -178 -24 -231 -45 -76 -81 -91 -223 -95 -120 -4 -121 -4 -127 20 -9 30 -9 421 -1 442 5 13 25 16 115 16 69 0 121 -5 142 -13z"/>
 <path d="M5998 4459 c-17 -9 -18 -59 -18 -813 0 -700 2 -805 15 -816 22 -18 531 -8 600 13 137 40 226 110 282 225 l38 76 0 135 c-1 117 -4 144 -23 191 -27 68 -80 135 -149 190 -37 29 -53 49 -53 65 0 13 56 167 124 342 152 392 142 357 117 382 -18 18 -34 21 -120 21 -102 0 -149 -10 -155 -32 -11 -37 -220 -616 -227 -630 -8 -15 -23 -18 -82 -18 -44 0 -78 5 -85 12 -9 9 -12 95 -12 324 0 373 12 344 -140 344 -52 0 -103 -5 -112 -11z m510 -934 c78 -33 122 -103 130 -205 6 -87 -10 -138 -59 -193 -49 -57 -82 -67 -215 -67 -84 0 -103 3 -108 16 -3 9 -6 109 -6 224 0 115 3 215 6 224 9 23 198 23 252 1z"/>
 <path d="M7440 4450 c-20 -20 -20 -33 -20 -803 0 -692 2 -785 16 -805 l15 -22 435 0 c281 0 442 4 455 10 17 10 19 22 19 110 0 88 -2 100 -19 110 -12 6 -132 10 -319 10 -242 0 -302 3 -311 14 -8 9 -11 77 -9 222 l3 209 193 5 c231 6 222 1 222 126 0 118 6 114 -206 114 -102 0 -183 4 -195 10 -18 10 -19 23 -19 223 0 117 5 219 10 227 8 13 56 15 317 18 201 2 311 7 320 14 9 7 13 40 13 108 l0 98 -31 11 c-21 7 -172 11 -450 11 -406 0 -420 -1 -439 -20z"/>
 <path d="M6 1959 c-3 -17 -6 -458 -6 -979 0 -905 1 -948 18 -963 17 -15 76 -17 643 -17 622 0 649 1 649 32 0 4 -277 8 -616 8 -405 0 -622 4 -635 10 -19 10 -19 32 -19 964 0 796 -2 955 -14 965 -11 9 -15 5 -20 -20z"/>
 <path d="M1440 1013 c1 -797 3 -981 14 -995 12 -17 55 -18 643 -18 627 0 653 1 653 32 0 4 -277 8 -616 8 -405 0 -622 4 -635 10 -19 10 -19 32 -19 963 0 954 -1 977 -32 977 -4 0 -8 -440 -8 -977z"/>
 <path d="M2880 1012 c0 -767 3 -982 13 -995 11 -16 59 -17 647 -15 595 3 635 4 638 20 3 17 -31 18 -615 18 -468 0 -622 3 -631 12 -9 9 -12 237 -12 963 0 952 -1 975 -32 975 -4 0 -8 -440 -8 -978z"/>
 <path d="M4320 1009 c0 -753 3 -988 12 -997 9 -9 166 -12 644 -12 577 0 632 1 638 16 4 9 5 19 3 21 -3 2 -279 3 -614 3 -336 0 -618 3 -627 6 -15 6 -16 91 -16 959 0 939 0 952 -20 970 -20 18 -20 17 -20 -966z"/>
 <path d="M5780 1009 c0 -753 3 -988 12 -997 9 -9 165 -12 639 -12 549 0 628 2 639 15 7 9 11 18 8 21 -3 2 -280 4 -615 4 -336 0 -618 3 -627 6 -15 6 -16 91 -16 959 0 939 0 952 -20 970 -20 18 -20 17 -20 -966z"/>
 <path d="M7230 1009 c0 -753 3 -988 12 -997 9 -9 165 -12 639 -12 549 0 628 2 639 15 7 9 11 18 8 21 -3 2 -280 4 -615 4 -336 0 -618 3 -627 6 -15 6 -16 91 -16 959 0 939 0 952 -20 970 -20 18 -20 17 -20 -966z"/>
 <path d="M8670 1009 c0 -753 3 -988 12 -997 9 -9 165 -12 639 -12 549 0 628 2 639 15 7 9 11 18 8 21 -3 2 -281 4 -617 4 -411 0 -618 3 -632 10 -19 11 -19 25 -19 962 1 841 -1 953 -15 967 -13 14 -15 -86 -15 -970z"/>
 <path d="M10110 1008 c0 -752 3 -987 12 -996 9 -9 164 -12 638 -12 623 0 650 1 650 32 0 4 -277 8 -616 8 -405 0 -622 4 -635 10 -19 10 -19 32 -19 964 0 835 -2 955 -15 966 -13 11 -15 -98 -15 -972z"/>
 <path d="M1950 1846 c-148 -41 -274 -175 -309 -327 -6 -26 -11 -224 -11 -484 0 -485 2 -504 62 -617 36 -67 126 -155 191 -187 50 -24 164 -51 217 -51 55 0 167 27 217 52 113 56 218 199 242 332 7 37 11 220 11 481 0 458 -3 488 -57 588 -31 57 -126 148 -186 179 -23 11 -64 27 -92 34 -62 17 -225 17 -285 0z m245 -249 c28 -15 48 -37 65 -72 l25 -50 0 -450 0 -450 -23 -47 c-36 -73 -71 -93 -164 -93 -85 0 -114 14 -156 75 -41 61 -43 91 -40 538 3 454 3 452 53 510 53 63 165 81 240 39z"/>
 <path d="M3098 1839 c-17 -9 -18 -59 -18 -812 0 -611 3 -806 12 -815 15 -15 415 -16 524 -2 97 12 195 54 264 110 147 124 193 366 104 555 -29 61 -103 148 -155 181 -49 31 -49 47 -3 161 40 98 76 191 154 398 29 77 56 144 61 149 16 18 9 55 -13 70 -17 12 -49 16 -130 16 -95 0 -110 -2 -125 -20 -9 -10 -50 -110 -90 -222 -40 -112 -91 -254 -114 -316 l-41 -113 -87 3 -86 3 -3 320 c-2 287 -4 321 -19 333 -21 15 -210 16 -235 1z m500 -924 c98 -41 149 -136 139 -260 -6 -85 -23 -122 -74 -164 -50 -41 -89 -51 -200 -51 -81 0 -94 2 -103 19 -6 12 -10 103 -10 226 0 123 4 214 10 226 9 17 22 19 106 19 63 0 107 -5 132 -15z"/>
 <path d="M4548 1839 c-17 -9 -18 -59 -18 -812 0 -611 3 -806 12 -815 8 -8 48 -12 113 -12 158 0 145 -32 145 361 0 181 3 329 8 329 4 0 92 -145 196 -323 104 -177 198 -332 209 -344 19 -21 29 -23 123 -23 111 0 140 12 132 54 -3 12 -100 177 -216 367 -117 191 -212 353 -212 360 0 8 106 192 235 408 129 217 235 404 235 417 0 13 -9 28 -19 34 -22 11 -230 14 -247 2 -10 -6 -113 -167 -149 -230 -5 -10 -44 -73 -85 -140 -41 -68 -79 -131 -85 -140 -43 -77 -110 -182 -117 -182 -4 0 -8 150 -8 334 0 291 -2 337 -16 350 -12 13 -38 16 -117 16 -56 0 -110 -5 -119 -11z"/>
 <path d="M7492 1834 c-20 -14 -22 -24 -22 -100 0 -126 -2 -124 135 -124 102 0 117 -2 135 -20 20 -20 20 -33 20 -563 0 -475 -2 -545 -16 -565 -14 -21 -23 -22 -128 -22 -143 0 -146 -2 -146 -122 0 -70 3 -88 18 -101 17 -15 60 -17 408 -17 290 0 393 3 402 12 16 16 16 200 0 216 -8 8 -50 12 -123 12 -96 0 -114 3 -128 18 -15 17 -17 71 -17 575 0 434 3 558 13 564 6 4 68 10 137 13 l125 5 3 105 c2 90 0 107 -15 117 -13 10 -107 13 -398 13 -328 0 -384 -2 -403 -16z"/>
 <path d="M8892 1834 l-22 -15 0 -793 c0 -755 1 -794 18 -809 15 -14 40 -17 124 -17 116 0 123 3 148 70 7 19 19 49 26 65 6 17 33 84 58 150 26 66 52 131 58 145 6 14 14 34 18 45 5 11 15 36 23 55 8 19 56 141 107 270 50 129 96 239 101 245 5 5 9 -196 9 -506 0 -387 3 -518 12 -527 19 -19 188 -16 216 4 l22 15 0 792 c0 482 -4 798 -10 807 -7 12 -33 15 -125 15 -136 0 -119 14 -183 -155 -48 -126 -52 -138 -76 -192 -9 -20 -16 -41 -16 -47 0 -6 -4 -19 -9 -29 -17 -33 -31 -68 -47 -117 -9 -27 -24 -68 -34 -90 -10 -22 -22 -51 -25 -65 -4 -14 -15 -43 -25 -65 -10 -22 -41 -101 -70 -175 -29 -74 -57 -139 -62 -145 -7 -6 -7 176 -3 516 l7 527 -21 21 c-18 18 -33 21 -109 21 -63 0 -94 -4 -110 -16z"/>
 <path d="M190 1821 c-7 -13 -10 -284 -10 -810 l0 -790 22 -15 c16 -12 47 -16 111 -16 142 0 127 -69 127 586 0 410 3 565 11 562 6 -2 25 -37 41 -78 17 -41 34 -84 38 -95 5 -11 20 -46 34 -77 14 -31 26 -63 26 -71 0 -8 7 -20 15 -27 8 -7 15 -18 15 -25 0 -20 29 -40 41 -28 5 5 41 84 78 174 111 270 100 304 101 -318 0 -387 3 -549 12 -567 14 -32 49 -39 159 -34 66 3 83 7 95 23 12 16 14 144 14 806 0 703 -2 789 -16 803 -12 13 -39 16 -123 16 -93 0 -110 -3 -125 -19 -9 -10 -38 -74 -65 -142 -113 -290 -126 -319 -141 -319 -10 0 -43 72 -103 225 -49 124 -95 232 -103 240 -12 12 -41 15 -129 15 -103 0 -115 -2 -125 -19z"/>
 </g>
<g id="layer102" fill="#6e5815" stroke="none">
 <path d="M1477 4569 c-4 -13 -7 -457 -7 -985 0 -799 2 -963 14 -973 9 -8 187 -10 647 -9 556 3 634 5 634 18 0 13 -78 16 -620 20 -341 3 -626 9 -633 13 -10 7 -12 205 -12 958 0 524 -4 957 -8 966 -8 13 -10 11 -15 -8z"/>
 <path d="M5790 3608 c0 -752 3 -987 12 -996 9 -9 166 -12 644 -12 552 0 633 2 638 15 3 8 4 16 3 17 -1 1 -285 5 -630 8 l-628 5 1 948 c0 936 0 949 -20 974 l-20 26 0 -985z"/>
 <path d="M7230 3608 c0 -752 3 -987 12 -996 9 -9 166 -12 644 -12 552 0 633 2 638 15 3 8 4 16 3 17 -1 1 -285 5 -630 8 l-628 5 1 948 c0 936 0 949 -20 974 l-20 26 0 -985z"/>
 <path d="M8670 3609 c0 -753 3 -988 12 -997 19 -19 1261 -17 1277 1 6 8 8 17 5 20 -4 3 -286 6 -627 7 -342 0 -625 4 -629 8 -4 4 -9 438 -10 964 -2 749 -6 960 -15 970 -10 10 -13 -185 -13 -973z"/>
 <path d="M10110 3609 c0 -753 3 -988 12 -997 9 -9 165 -12 639 -12 604 0 660 2 634 28 -4 4 -284 9 -623 12 -339 3 -623 9 -629 13 -10 6 -13 210 -13 960 0 597 -4 958 -10 967 -6 10 -10 -331 -10 -971z"/>
 <path d="M28 3609 c-2 -633 0 -980 7 -992 9 -16 48 -17 645 -15 557 3 635 5 635 18 0 13 -78 16 -625 20 -344 3 -626 6 -627 8 -2 1 -4 432 -5 957 -2 741 -6 957 -15 966 -10 10 -13 -188 -15 -962z"/>
 <path d="M2916 4573 c-3 -3 -6 -443 -6 -978 0 -742 3 -974 12 -983 19 -19 1271 -17 1287 2 9 11 5 15 -20 20 -17 3 -297 6 -621 6 -387 0 -596 4 -609 10 -19 10 -19 32 -19 965 0 524 -4 956 -9 959 -4 3 -11 3 -15 -1z"/>
 <path d="M4350 3602 c0 -747 3 -981 12 -990 9 -9 166 -12 644 -12 533 0 633 2 637 14 4 9 -3 16 -16 20 -12 3 -287 6 -612 6 -324 0 -599 3 -610 6 -20 5 -20 12 -17 947 2 940 1 987 -30 987 -4 0 -8 -440 -8 -978z"/>
 <path d="M3410 4466 c-121 -34 -237 -133 -291 -248 l-34 -73 -3 -463 c-2 -382 0 -473 12 -520 14 -56 44 -128 68 -167 28 -43 116 -122 159 -143 53 -26 166 -52 224 -52 58 0 171 26 222 51 65 32 145 110 182 178 65 123 64 114 68 588 3 276 0 453 -6 490 -17 91 -72 193 -137 253 -66 60 -108 83 -191 104 -72 19 -209 20 -273 2z m226 -247 c35 -17 51 -33 72 -73 l27 -51 0 -450 0 -450 -23 -47 c-37 -74 -71 -93 -169 -93 -97 0 -124 15 -163 91 l-25 49 -3 425 c-2 283 1 440 8 469 31 126 158 185 276 130z"/>
 <path d="M4844 4462 c-124 -44 -221 -128 -275 -237 l-34 -70 -3 -475 c-4 -508 -1 -542 45 -634 36 -72 130 -161 205 -196 138 -64 320 -61 454 8 60 30 136 104 167 159 52 97 75 253 41 287 -12 13 -38 16 -117 16 -56 0 -108 -4 -115 -8 -7 -5 -17 -37 -23 -73 -12 -74 -42 -133 -82 -163 -24 -17 -43 -21 -111 -21 -74 0 -86 3 -118 27 -74 57 -73 47 -73 565 l0 461 31 43 c64 89 165 113 258 61 78 -43 96 -86 96 -232 0 -77 -4 -120 -12 -128 -7 -7 -41 -12 -83 -12 -42 0 -76 -5 -83 -12 -14 -14 -16 -166 -2 -188 8 -12 45 -16 211 -18 179 -3 203 -1 220 14 18 16 19 34 19 243 0 282 -13 344 -95 440 -39 45 -136 113 -193 134 -80 29 -256 34 -328 9z"/>
 <path d="M9165 4465 c-175 -55 -284 -189 -307 -377 -10 -82 -10 -82 17 -105 23 -20 37 -23 114 -23 108 0 131 15 131 86 0 114 78 194 190 194 84 0 153 -44 179 -113 26 -68 6 -173 -42 -226 -12 -13 -103 -85 -202 -159 -187 -142 -289 -236 -330 -306 -103 -179 -52 -418 116 -542 180 -132 482 -114 620 38 53 58 85 116 105 191 17 64 18 169 2 185 -14 14 -205 17 -227 3 -8 -5 -16 -36 -20 -72 -13 -130 -75 -189 -196 -189 -107 0 -165 60 -165 169 0 90 27 130 147 224 381 297 456 380 485 536 15 77 1 177 -36 256 -46 101 -169 199 -290 231 -63 17 -237 17 -291 -1z"/>
 <path d="M10615 4465 c-147 -46 -251 -148 -290 -284 -17 -59 -28 -173 -18 -187 17 -24 55 -34 133 -34 73 0 83 3 105 25 19 18 25 35 25 70 0 106 81 185 190 185 84 0 153 -44 179 -113 17 -43 13 -127 -8 -172 -22 -50 -60 -83 -283 -250 -252 -188 -324 -284 -335 -446 -7 -93 19 -191 70 -265 47 -69 142 -139 225 -164 81 -26 230 -29 310 -7 178 51 302 219 302 412 0 34 -5 66 -12 73 -14 14 -205 17 -226 3 -8 -4 -17 -37 -22 -73 -16 -132 -75 -188 -196 -188 -61 0 -96 15 -134 55 -21 22 -25 38 -28 100 -4 65 -1 80 21 117 24 42 41 58 137 132 163 127 272 218 320 266 56 56 90 96 90 106 0 2 9 17 19 32 11 15 27 60 37 101 33 139 -7 282 -108 382 -61 61 -135 105 -212 125 -63 17 -237 17 -291 -1z"/>
 <path d="M243 4455 l-23 -16 0 -792 c1 -667 3 -795 15 -811 13 -17 29 -18 282 -13 207 3 281 8 327 21 199 56 319 205 330 411 9 164 -33 287 -137 400 -55 60 -75 74 -138 99 -68 27 -87 30 -229 34 -127 3 -157 7 -167 20 -10 12 -13 92 -13 321 0 175 -4 312 -10 321 -14 23 -207 27 -237 5z m537 -915 c70 -36 110 -121 110 -234 0 -92 -14 -138 -53 -183 -47 -53 -80 -63 -211 -63 -104 0 -116 2 -126 19 -15 29 -14 453 2 469 8 8 51 12 125 12 94 0 121 -3 153 -20z"/>
 <path d="M1682 4454 l-22 -15 0 -792 c1 -667 3 -795 15 -811 13 -17 29 -18 282 -13 282 5 317 10 418 58 77 36 165 131 200 214 27 64 29 80 29 190 0 102 -3 128 -22 174 -34 81 -77 137 -148 192 -37 29 -64 59 -64 69 0 10 59 168 130 351 72 183 130 340 130 350 0 36 -38 49 -147 49 -123 0 -140 -11 -168 -108 -10 -35 -22 -65 -27 -68 -4 -3 -8 -12 -8 -20 0 -9 -11 -43 -24 -77 -13 -34 -35 -93 -48 -132 -14 -38 -43 -116 -64 -172 l-37 -103 -77 0 c-46 0 -81 5 -88 12 -9 9 -12 95 -12 326 0 288 -1 316 -17 328 -27 20 -202 19 -231 -2z m511 -927 c44 -19 103 -87 116 -134 33 -118 -3 -249 -82 -301 -37 -25 -50 -27 -162 -30 -121 -4 -122 -4 -128 20 -9 30 -9 421 -1 442 5 13 25 16 115 16 69 0 121 -5 142 -13z"/>
 <path d="M5998 4459 c-17 -9 -18 -59 -18 -813 0 -700 2 -805 15 -816 22 -18 531 -8 600 13 137 40 226 110 282 225 l38 76 0 135 c-1 117 -4 144 -23 191 -27 68 -80 135 -149 190 -37 29 -53 49 -53 65 0 13 59 174 130 358 78 200 127 342 124 352 -4 9 -18 21 -31 26 -31 12 -194 12 -226 0 -20 -8 -38 -51 -127 -298 -57 -158 -112 -307 -121 -330 l-18 -43 -74 0 c-43 0 -78 5 -85 12 -9 9 -12 95 -12 324 0 373 12 344 -140 344 -52 0 -103 -5 -112 -11z m501 -929 c42 -12 86 -52 114 -105 18 -32 22 -57 22 -130 0 -77 -3 -96 -24 -132 -14 -24 -42 -55 -64 -70 -38 -26 -48 -28 -160 -32 -93 -2 -121 0 -128 10 -10 16 -12 429 -3 453 5 13 24 16 108 16 55 0 117 -4 135 -10z"/>
 <path d="M7440 4450 c-20 -20 -20 -33 -20 -803 0 -692 2 -785 16 -805 l15 -22 435 0 c281 0 442 4 455 10 17 10 19 22 19 110 0 88 -2 100 -19 110 -12 6 -132 10 -319 10 -242 0 -302 3 -311 14 -8 9 -11 77 -9 222 l3 209 193 5 c231 6 222 1 222 126 0 118 6 114 -206 114 -102 0 -183 4 -195 10 -18 10 -19 23 -19 223 0 117 5 219 10 227 8 13 56 15 317 18 201 2 311 7 320 14 9 7 13 40 13 108 l0 98 -31 11 c-21 7 -172 11 -450 11 -406 0 -420 -1 -439 -20z"/>
 <path d="M4320 1009 c0 -753 3 -988 12 -997 19 -19 1261 -17 1277 2 9 11 7 15 -11 20 -13 3 -288 6 -613 6 -324 0 -599 3 -610 6 -20 5 -20 12 -17 958 2 944 2 953 -18 971 l-20 18 0 -984z"/>
 <path d="M5780 1009 c0 -753 3 -988 12 -997 19 -19 1261 -17 1277 2 9 11 7 15 -11 20 -13 3 -288 6 -613 6 -324 0 -599 3 -610 6 -20 5 -20 12 -17 958 2 944 2 953 -18 971 l-20 18 0 -984z"/>
 <path d="M7230 1008 c0 -752 3 -987 12 -996 19 -19 1261 -17 1277 2 9 11 7 15 -11 20 -13 3 -288 6 -613 6 -324 0 -599 3 -610 6 -20 5 -20 12 -17 950 2 935 2 946 -18 971 l-20 26 0 -985z"/>
 <path d="M8670 1009 c0 -753 3 -988 12 -997 9 -9 165 -12 639 -12 621 0 677 3 626 32 -9 4 -292 9 -629 11 l-613 2 -5 955 c-4 726 -8 960 -17 975 -10 16 -12 -186 -13 -966z"/>
 <path d="M10110 1008 c0 -752 3 -987 12 -996 9 -9 165 -12 639 -12 618 0 672 3 628 31 -8 5 -289 9 -626 9 -595 0 -613 1 -623 19 -7 13 -10 334 -10 970 0 622 -3 952 -10 956 -7 4 -10 -324 -10 -977z"/>
 <path d="M8 1008 c-3 -824 -1 -976 11 -990 13 -17 56 -18 642 -18 618 0 672 3 628 31 -8 5 -289 9 -626 9 -595 0 -613 1 -623 19 -7 13 -10 332 -10 965 0 610 -3 947 -10 951 -6 4 -11 -331 -12 -967z"/>
 <path d="M1446 1964 c-3 -9 -6 -447 -6 -973 0 -915 1 -959 18 -974 17 -15 76 -17 645 -17 616 0 670 3 626 31 -8 5 -289 9 -624 9 -462 0 -614 3 -623 12 -9 9 -12 237 -12 964 0 550 -4 955 -9 958 -5 3 -12 -1 -15 -10z"/>
 <path d="M2880 1009 c0 -650 3 -977 10 -990 10 -18 28 -19 645 -19 624 0 678 3 634 31 -8 5 -285 9 -617 9 -397 0 -610 4 -623 10 -19 10 -19 32 -19 970 0 847 -2 960 -15 960 -13 0 -15 -115 -15 -971z"/>
 <path d="M1950 1846 c-100 -28 -181 -90 -248 -188 -69 -102 -67 -85 -70 -592 -2 -311 1 -476 8 -512 27 -130 132 -269 243 -323 149 -72 345 -60 477 29 72 49 112 95 152 173 54 107 57 141 58 607 0 463 -3 492 -57 593 -31 57 -126 148 -186 179 -23 11 -64 27 -92 34 -62 17 -224 17 -285 0z m245 -249 c28 -15 48 -37 65 -72 l25 -50 0 -450 0 -450 -23 -47 c-36 -73 -71 -93 -164 -93 -62 0 -82 4 -105 21 -36 27 -70 77 -83 123 -16 56 -13 834 3 896 23 91 92 144 187 144 39 1 67 -6 95 -22z"/>
 <path d="M3098 1839 c-17 -9 -18 -59 -18 -810 0 -680 2 -803 14 -815 12 -11 57 -14 233 -14 254 1 339 10 424 45 127 54 201 129 251 255 32 81 32 250 -1 335 -31 79 -88 155 -156 206 -38 29 -55 48 -55 64 0 12 44 136 99 276 54 140 113 294 132 343 l33 88 -23 19 c-20 16 -40 19 -132 19 -96 0 -111 -2 -126 -20 -9 -10 -50 -110 -90 -222 -40 -112 -91 -254 -114 -316 l-41 -113 -87 3 -86 3 -3 320 c-2 287 -4 321 -19 333 -21 15 -210 16 -235 1z m504 -925 c84 -32 138 -123 138 -233 0 -86 -17 -131 -66 -178 -53 -51 -92 -63 -211 -63 -81 0 -94 2 -103 19 -6 12 -10 103 -10 226 0 123 4 214 10 226 9 17 22 19 105 19 63 0 109 -5 137 -16z"/>
 <path d="M4548 1839 c-17 -9 -18 -59 -18 -812 0 -611 3 -806 12 -815 8 -8 48 -12 113 -12 158 0 145 -32 145 361 0 181 3 329 8 329 4 0 92 -144 195 -320 104 -175 197 -330 208 -345 20 -24 25 -25 124 -25 112 0 141 12 133 54 -3 12 -100 177 -216 367 -117 191 -212 353 -212 360 0 8 106 192 235 408 129 217 235 404 235 417 0 35 -29 44 -146 44 -83 0 -111 -3 -125 -16 -9 -8 -108 -166 -220 -350 -112 -184 -207 -334 -211 -334 -4 0 -8 150 -8 334 0 291 -2 337 -16 350 -12 13 -38 16 -117 16 -56 0 -110 -5 -119 -11z"/>
 <path d="M7492 1834 c-20 -14 -22 -24 -22 -100 0 -126 -2 -124 135 -124 102 0 117 -2 135 -20 20 -20 20 -33 20 -563 0 -475 -2 -545 -16 -565 -14 -21 -23 -22 -128 -22 -142 0 -146 -3 -146 -116 0 -56 5 -86 16 -102 l15 -22 385 0 c247 0 392 4 405 10 17 10 19 22 19 108 0 63 -4 102 -12 110 -8 8 -50 12 -123 12 -96 0 -114 3 -128 18 -15 17 -17 71 -17 575 0 434 3 558 13 564 6 4 68 10 137 13 l125 5 3 105 c2 90 0 107 -15 117 -13 10 -107 13 -398 13 -328 0 -384 -2 -403 -16z"/>
 <path d="M8892 1834 l-22 -15 0 -793 c0 -761 1 -794 19 -810 15 -14 36 -16 127 -14 l109 3 20 40 c22 45 35 75 89 211 20 51 36 95 36 98 0 3 8 25 18 49 40 90 85 200 168 412 47 121 90 224 95 230 5 5 9 -196 9 -499 0 -330 4 -514 10 -527 9 -17 22 -19 103 -19 68 0 99 4 115 16 l22 15 0 792 c0 482 -4 798 -10 807 -7 12 -33 15 -125 15 -131 0 -124 4 -157 -90 -10 -27 -22 -59 -27 -70 -5 -11 -16 -40 -26 -65 -10 -25 -21 -54 -25 -65 -4 -11 -15 -36 -24 -57 -9 -20 -16 -41 -16 -47 0 -6 -9 -30 -20 -54 -10 -23 -27 -64 -36 -92 -9 -27 -24 -68 -34 -90 -10 -22 -22 -51 -25 -65 -4 -14 -15 -43 -25 -65 -9 -22 -41 -102 -70 -178 -30 -76 -58 -141 -63 -144 -6 -4 -7 192 -2 519 l7 526 -21 21 c-18 18 -33 21 -109 21 -63 0 -94 -4 -110 -16z"/>
 <path d="M190 1821 c-7 -13 -10 -284 -10 -810 l0 -790 22 -15 c35 -24 199 -22 221 2 15 17 17 71 17 576 0 394 3 557 11 554 6 -2 48 -90 93 -196 45 -106 88 -198 95 -205 18 -18 31 4 95 162 30 75 65 159 78 186 l23 50 5 -550 c3 -302 9 -558 13 -567 12 -23 59 -31 158 -26 66 3 83 7 95 23 12 16 14 144 14 806 0 703 -2 789 -16 803 -24 24 -225 23 -246 -1 -9 -10 -55 -118 -104 -240 -61 -152 -94 -223 -104 -223 -10 0 -43 71 -103 225 -49 124 -95 232 -103 240 -12 12 -41 15 -129 15 -103 0 -115 -2 -125 -19z"/>
 </g>
<g id="layer103" fill="#937214" stroke="none">
 <path d="M7230 3604 c0 -816 2 -983 14 -993 20 -17 1268 -11 1274 7 3 9 -125 12 -616 12 -551 0 -622 2 -636 16 -14 14 -16 115 -16 962 0 594 -4 953 -10 962 -6 10 -10 -329 -10 -966z"/>
 <path d="M8670 3604 c0 -816 2 -983 14 -993 20 -17 1268 -11 1274 7 3 9 -124 12 -613 12 -406 0 -623 4 -636 10 -19 10 -19 32 -19 963 0 597 -4 958 -10 967 -6 10 -10 -329 -10 -966z"/>
 <path d="M10111 3604 c-1 -817 1 -983 13 -993 20 -17 1268 -11 1274 7 3 9 -124 12 -613 12 -406 0 -623 4 -636 10 -19 10 -19 32 -20 958 0 521 -4 956 -9 967 -5 11 -9 -405 -9 -961z"/>
 <path d="M28 3600 c-3 -877 -1 -973 13 -986 13 -12 109 -14 644 -12 492 2 629 6 633 16 3 9 -124 12 -613 12 -406 0 -623 4 -636 10 -19 10 -19 32 -19 965 0 619 -3 956 -10 960 -6 4 -11 -327 -12 -965z"/>
 <path d="M1478 3605 c-2 -630 0 -976 7 -988 9 -16 48 -17 644 -15 497 2 635 6 639 16 3 9 -124 12 -613 12 -406 0 -623 4 -636 10 -19 10 -19 32 -19 958 0 588 -4 953 -10 962 -6 10 -10 -330 -12 -955z"/>
 <path d="M2918 4564 c-5 -4 -8 -442 -8 -974 0 -738 3 -969 12 -978 9 -9 166 -12 644 -12 552 0 633 2 638 15 5 13 -67 15 -613 15 -575 0 -620 1 -640 18 l-21 17 -3 953 c-1 525 -5 950 -9 946z"/>
 <path d="M4350 3597 c0 -743 3 -976 12 -985 9 -9 166 -12 644 -12 552 0 633 2 638 15 5 13 -67 15 -612 15 -543 0 -620 2 -640 16 l-22 15 0 955 c0 629 -3 954 -10 954 -7 0 -10 -331 -10 -973z"/>
 <path d="M5790 3598 c0 -744 3 -977 12 -986 9 -9 166 -12 645 -12 552 0 633 2 633 15 0 13 -82 15 -625 17 -543 3 -627 5 -635 18 -6 9 -10 383 -10 962 0 620 -3 949 -10 953 -7 4 -10 -321 -10 -967z"/>
 <path d="M3410 4466 c-120 -34 -229 -126 -287 -244 l-38 -76 0 -490 0 -491 27 -68 c34 -85 112 -185 176 -225 96 -61 238 -84 361 -58 190 40 298 151 358 367 12 42 15 864 4 927 -18 96 -72 193 -144 255 -34 30 -76 61 -92 70 -87 44 -266 60 -365 33z m236 -251 c29 -17 49 -39 66 -72 l23 -48 0 -450 0 -450 -23 -47 c-37 -74 -71 -93 -169 -93 -95 0 -122 14 -163 86 l-25 44 -3 430 c-3 460 -1 492 45 552 57 75 167 96 249 48z"/>
 <path d="M4844 4462 c-107 -38 -216 -124 -261 -208 -50 -92 -53 -125 -53 -614 0 -483 2 -507 50 -600 34 -67 129 -156 202 -190 138 -64 320 -61 454 8 60 30 136 104 167 159 52 97 75 253 41 287 -12 13 -38 16 -117 16 -56 0 -108 -4 -115 -8 -7 -5 -17 -37 -23 -73 -12 -74 -42 -133 -82 -163 -24 -17 -43 -21 -111 -21 -74 0 -86 3 -118 27 -73 56 -73 51 -76 543 -2 279 1 453 7 475 13 46 77 114 120 129 85 28 183 -2 229 -71 25 -39 27 -50 30 -165 3 -86 0 -128 -8 -138 -9 -11 -34 -15 -84 -15 -43 0 -77 -5 -84 -12 -14 -14 -16 -166 -2 -188 8 -12 45 -16 211 -18 179 -3 203 -1 220 14 18 16 19 34 19 243 0 242 -9 310 -52 379 -49 79 -151 164 -235 194 -81 30 -257 35 -329 10z"/>
 <path d="M9165 4465 c-183 -58 -286 -189 -310 -397 -6 -53 -4 -60 19 -83 23 -23 33 -25 109 -25 108 0 137 18 137 86 0 114 78 194 190 194 84 0 153 -44 179 -113 16 -41 13 -122 -4 -165 -22 -51 -43 -72 -180 -175 -315 -237 -388 -312 -426 -439 -65 -214 62 -451 279 -519 80 -24 211 -29 292 -9 154 37 264 145 306 303 17 64 18 169 2 185 -14 14 -205 17 -226 3 -8 -4 -16 -35 -19 -68 -6 -70 -37 -138 -75 -166 -20 -15 -48 -21 -105 -25 -70 -3 -82 -1 -113 20 -53 35 -72 80 -68 159 5 96 27 122 229 279 290 226 374 324 401 468 15 78 1 177 -36 257 -46 101 -169 199 -290 231 -63 17 -237 17 -291 -1z"/>
 <path d="M10615 4465 c-147 -46 -252 -152 -293 -295 -15 -49 -24 -163 -15 -176 17 -24 55 -34 131 -34 107 0 123 13 133 103 11 111 82 177 189 177 84 0 153 -44 179 -113 26 -68 6 -173 -42 -226 -12 -13 -92 -76 -177 -141 -219 -165 -271 -210 -323 -280 -141 -188 -104 -447 85 -586 78 -57 167 -85 278 -86 148 -2 236 29 328 116 84 79 132 191 132 306 -1 84 -9 90 -126 90 -54 0 -105 -4 -112 -9 -8 -4 -17 -37 -22 -73 -16 -132 -75 -188 -196 -188 -61 0 -96 15 -134 55 -21 23 -25 38 -28 103 -4 73 -2 79 30 127 18 27 56 67 83 88 28 21 91 69 141 107 152 116 256 213 305 286 87 128 100 278 37 416 -47 103 -171 202 -292 234 -63 17 -237 17 -291 -1z"/>
 <path d="M243 4455 l-23 -16 0 -793 c0 -775 0 -793 20 -811 18 -16 40 -17 282 -12 202 3 277 8 322 21 234 65 356 262 326 525 -13 119 -51 198 -135 286 -58 60 -82 78 -140 101 -63 25 -84 28 -225 32 -127 3 -157 7 -167 20 -10 12 -13 92 -13 321 0 175 -4 312 -10 321 -14 23 -207 27 -237 5z m537 -915 c70 -36 110 -121 110 -234 0 -92 -14 -138 -53 -183 -47 -53 -80 -63 -211 -63 -104 0 -116 2 -126 19 -15 29 -14 453 2 469 8 8 51 12 125 12 94 0 121 -3 153 -20z"/>
 <path d="M1682 4454 l-22 -15 0 -792 c1 -667 3 -795 15 -811 13 -17 29 -18 282 -13 282 5 317 10 418 58 74 35 168 133 194 204 34 90 44 153 38 235 -10 142 -67 250 -178 336 -35 27 -59 53 -59 64 0 11 59 169 130 352 72 182 130 340 130 349 0 36 -38 49 -146 49 -82 0 -106 -3 -123 -17 -18 -16 -37 -64 -137 -343 -53 -148 -63 -178 -88 -245 -14 -38 -26 -71 -26 -72 0 -10 -158 -1 -168 9 -9 9 -12 96 -12 328 l0 317 -25 11 c-40 18 -196 15 -223 -4z m505 -925 c40 -15 92 -67 114 -114 13 -28 19 -63 19 -115 0 -98 -30 -166 -91 -207 -40 -26 -50 -28 -164 -31 -121 -4 -122 -4 -128 20 -9 30 -9 421 -1 442 5 13 25 16 114 16 60 0 121 -5 137 -11z"/>
 <path d="M6003 4458 l-23 -11 0 -802 c0 -699 2 -804 15 -815 22 -18 531 -8 600 13 137 40 226 110 282 225 l38 76 0 135 c-1 117 -4 144 -23 191 -27 68 -80 135 -149 190 -37 29 -53 49 -53 65 0 13 59 174 130 358 78 200 127 342 124 352 -10 26 -48 35 -149 35 -83 0 -97 -2 -118 -22 -17 -17 -55 -110 -132 -323 -59 -165 -111 -308 -116 -317 -8 -15 -23 -18 -82 -18 -44 0 -78 5 -85 12 -9 9 -12 95 -12 324 0 372 11 344 -135 343 -49 0 -100 -5 -112 -11z m496 -928 c42 -12 86 -52 114 -105 18 -32 22 -57 22 -130 0 -77 -3 -96 -24 -132 -14 -24 -42 -55 -64 -70 -38 -26 -48 -28 -160 -32 -93 -2 -121 0 -128 10 -10 16 -12 452 -2 462 10 11 204 8 242 -3z"/>
 <path d="M7444 4456 c-18 -14 -19 -36 -22 -802 -2 -695 -1 -790 13 -810 l15 -24 436 0 c281 0 442 4 455 10 17 10 19 22 19 110 0 88 -2 100 -19 110 -12 6 -132 10 -319 10 -242 0 -302 3 -311 14 -8 9 -11 77 -9 222 l3 209 193 5 c231 6 222 1 222 126 0 118 7 114 -214 114 -128 0 -186 4 -194 12 -9 9 -12 73 -12 224 0 180 2 215 16 228 13 14 56 16 318 16 248 0 306 3 315 14 8 9 11 47 9 107 -3 88 -4 94 -28 106 -39 20 -859 18 -886 -1z"/>
 <path d="M5780 1003 c0 -748 3 -982 12 -991 19 -19 1261 -17 1277 2 9 11 5 15 -20 20 -17 3 -300 6 -628 6 -451 0 -600 3 -609 12 -9 9 -12 237 -12 964 0 625 -3 955 -10 959 -7 4 -10 -323 -10 -972z"/>
 <path d="M7230 1004 c0 -749 3 -983 12 -992 15 -15 1244 -17 1268 -2 8 5 11 13 6 17 -4 4 -285 9 -624 11 -429 2 -620 6 -629 13 -11 9 -13 184 -13 958 0 593 -4 952 -10 961 -6 10 -10 -329 -10 -966z"/>
 <path d="M8670 1004 c0 -749 3 -983 12 -992 15 -15 1244 -17 1268 -2 8 5 11 13 6 17 -4 4 -285 9 -624 11 -429 2 -620 6 -629 13 -11 9 -13 184 -13 958 0 593 -4 952 -10 961 -6 10 -10 -329 -10 -966z"/>
 <path d="M10110 1004 c0 -749 3 -983 12 -992 15 -15 1244 -17 1268 -2 8 5 11 13 6 17 -4 4 -290 10 -634 13 l-627 5 -5 962 c-3 529 -8 965 -12 969 -5 4 -8 -434 -8 -972z"/>
 <path d="M8 1001 c-3 -875 -1 -974 13 -987 13 -12 113 -14 642 -14 602 0 658 2 632 28 -4 4 -289 9 -633 12 l-627 5 -3 955 c-1 609 -6 958 -12 964 -6 6 -11 -324 -12 -963z"/>
 <path d="M1448 1004 c-3 -820 -1 -972 11 -986 13 -17 56 -18 636 -18 541 0 624 2 635 15 7 8 11 16 9 17 -2 1 -287 5 -634 8 l-630 5 -5 957 c-3 526 -8 960 -12 964 -4 4 -9 -429 -10 -962z"/>
 <path d="M2880 1002 c0 -926 1 -970 18 -985 17 -15 76 -17 639 -17 515 0 622 2 632 14 9 11 7 15 -11 20 -13 3 -296 6 -630 6 -590 0 -608 1 -618 19 -7 13 -10 333 -10 965 0 624 -3 946 -10 946 -7 0 -10 -329 -10 -968z"/>
 <path d="M4320 1003 c1 -789 3 -971 14 -985 12 -17 55 -18 638 -18 518 0 628 2 637 14 9 11 5 15 -20 20 -17 3 -300 6 -628 6 -451 0 -600 3 -609 12 -9 9 -12 237 -12 965 0 629 -3 953 -10 953 -7 0 -10 -329 -10 -967z"/>
 <path d="M1959 1846 c-131 -36 -248 -142 -305 -276 -18 -42 -19 -77 -22 -504 -2 -311 1 -476 8 -512 19 -89 73 -186 139 -247 71 -65 124 -92 222 -113 165 -35 342 21 447 141 46 51 91 147 108 224 18 85 20 860 3 943 -18 84 -59 158 -124 224 -98 99 -188 134 -340 133 -49 0 -111 -7 -136 -13z m231 -246 c21 -11 47 -32 58 -47 40 -59 43 -98 40 -554 l-3 -436 -30 -48 c-42 -67 -83 -87 -167 -83 -48 3 -75 9 -95 24 -36 27 -70 77 -83 123 -6 21 -10 202 -10 447 0 333 3 420 15 460 15 52 56 99 103 120 43 20 128 17 172 -6z"/>
 <path d="M3098 1839 c-17 -9 -18 -59 -18 -808 0 -780 0 -798 20 -816 18 -16 40 -17 282 -12 197 4 274 9 308 20 149 50 233 115 284 219 107 216 54 461 -129 599 -38 29 -55 48 -55 64 0 13 59 174 130 358 72 184 130 340 130 346 0 28 -46 41 -140 41 -114 0 -134 -5 -148 -33 -6 -12 -55 -143 -108 -292 -53 -148 -104 -287 -112 -308 l-16 -38 -86 3 -85 3 -5 323 c-4 272 -7 324 -20 332 -20 13 -210 12 -232 -1z m505 -925 c92 -31 143 -129 135 -259 -6 -90 -33 -140 -96 -180 -43 -27 -55 -30 -156 -34 -97 -3 -111 -1 -123 15 -16 22 -19 424 -3 455 9 17 22 19 104 19 58 0 110 -6 139 -16z"/>
 <path d="M4548 1839 c-17 -9 -18 -59 -18 -812 0 -611 3 -806 12 -815 8 -8 48 -12 113 -12 158 0 145 -32 145 361 0 181 3 329 8 329 4 0 92 -144 196 -321 104 -176 198 -331 208 -344 18 -24 25 -25 123 -25 112 0 141 12 133 54 -3 12 -100 177 -216 367 -117 191 -212 353 -212 360 0 8 106 192 235 408 129 217 235 404 235 417 0 35 -29 44 -146 44 -83 0 -111 -3 -125 -16 -9 -8 -108 -166 -220 -350 -112 -184 -207 -334 -211 -334 -4 0 -8 150 -8 334 0 291 -2 337 -16 350 -12 13 -38 16 -117 16 -56 0 -110 -5 -119 -11z"/>
 <path d="M7492 1834 c-20 -14 -22 -24 -22 -100 0 -126 -2 -124 135 -124 102 0 117 -2 135 -20 20 -20 20 -33 20 -563 0 -475 -2 -545 -16 -565 -14 -21 -23 -22 -128 -22 -142 0 -146 -3 -146 -116 0 -56 5 -86 16 -102 l15 -22 388 0 c459 0 421 -11 421 126 0 57 -4 94 -12 102 -8 8 -50 12 -123 12 -96 0 -114 3 -128 18 -15 17 -17 71 -17 575 0 434 3 558 13 564 6 4 68 10 137 13 l125 5 3 105 c2 90 0 107 -15 117 -13 10 -107 13 -398 13 -328 0 -384 -2 -403 -16z"/>
 <path d="M8891 1831 c-21 -21 -21 -23 -21 -804 0 -692 2 -785 16 -805 14 -20 23 -22 124 -22 103 0 110 1 124 22 8 13 47 104 85 203 39 99 75 189 80 200 5 11 17 40 26 65 9 25 22 59 29 75 8 17 26 62 41 100 36 94 40 104 58 145 9 19 23 58 32 85 16 48 31 83 61 150 12 26 14 -43 14 -490 1 -416 3 -523 14 -537 18 -25 180 -26 214 -2 l22 15 0 792 c0 482 -4 798 -10 807 -10 17 -154 27 -215 16 -36 -7 -34 -2 -141 -281 -12 -33 -35 -91 -49 -130 -15 -38 -38 -98 -50 -132 -13 -34 -30 -77 -38 -95 -8 -18 -48 -120 -88 -227 -41 -107 -80 -201 -87 -210 -11 -13 -12 77 -7 509 6 457 5 528 -8 545 -13 17 -29 21 -110 23 -86 4 -97 2 -116 -17z"/>
 <path d="M190 1821 c-7 -13 -10 -284 -10 -810 l0 -790 22 -15 c31 -22 185 -22 216 0 l22 15 0 560 c0 421 3 560 12 557 10 -4 81 -160 145 -318 14 -36 32 -72 40 -80 13 -13 16 -13 28 4 8 10 46 99 85 197 40 99 76 182 81 185 5 3 9 -219 9 -529 0 -357 4 -544 11 -565 9 -27 17 -32 55 -38 24 -3 76 -4 115 -2 55 3 74 8 85 23 12 16 14 149 14 805 0 750 -1 788 -18 803 -28 25 -222 25 -244 0 -8 -10 -55 -118 -104 -240 -66 -166 -93 -223 -106 -223 -9 0 -20 10 -23 23 -21 69 -169 429 -181 442 -12 12 -41 15 -129 15 -103 0 -115 -2 -125 -19z"/>
 </g>
<g id="layer104" fill="#a68013" stroke="none">
 <path d="M5790 3599 c0 -745 3 -978 12 -987 15 -15 1263 -18 1272 -3 3 5 -1 12 -10 15 -9 3 -286 6 -615 6 -395 0 -607 4 -620 10 -19 10 -19 32 -19 958 0 594 -4 953 -10 962 -6 10 -10 -327 -10 -961z"/>
 <path d="M7230 3599 c0 -812 2 -978 14 -988 18 -15 1266 -11 1266 4 0 7 -216 12 -617 15 -340 3 -624 9 -630 13 -10 6 -13 209 -13 955 0 594 -4 953 -10 962 -6 10 -10 -327 -10 -961z"/>
 <path d="M8672 3599 c-1 -748 1 -978 10 -987 15 -15 1263 -18 1272 -3 3 5 -1 12 -10 15 -9 3 -287 6 -618 6 -504 0 -605 2 -622 14 -19 14 -19 39 -24 973 l-5 958 -3 -976z"/>
 <path d="M10112 3599 c-1 -748 1 -978 10 -987 15 -15 1263 -18 1272 -3 3 5 -1 12 -10 15 -9 3 -289 6 -623 6 -576 0 -609 1 -624 18 -15 17 -17 102 -20 973 l-2 954 -3 -976z"/>
 <path d="M32 3594 c-1 -744 1 -973 10 -982 18 -18 1271 -17 1266 1 -4 9 -138 13 -620 15 -580 2 -616 3 -631 20 -15 17 -17 104 -20 968 l-2 949 -3 -971z"/>
 <path d="M1480 3598 c-4 -701 -2 -972 6 -983 10 -13 90 -15 643 -15 502 0 632 3 629 13 -4 9 -138 13 -620 15 -580 2 -616 3 -631 20 -15 17 -17 103 -19 968 l-3 949 -5 -967z"/>
 <path d="M2920 3600 c-3 -628 -2 -971 5 -982 9 -17 50 -18 643 -18 503 0 633 3 630 13 -4 9 -141 13 -626 17 -341 3 -624 9 -629 13 -4 5 -10 439 -13 965 l-5 957 -5 -965z"/>
 <path d="M4350 3592 c0 -740 3 -971 12 -980 15 -15 1278 -18 1278 -3 0 5 -7 12 -16 15 -9 3 -286 6 -615 6 -395 0 -607 4 -620 10 -19 10 -19 32 -19 965 0 630 -3 955 -10 955 -7 0 -10 -329 -10 -968z"/>
 <path d="M3410 4466 c-122 -35 -230 -127 -287 -244 l-38 -76 0 -490 0 -491 30 -73 c63 -150 175 -244 330 -277 88 -18 122 -18 209 0 140 30 241 106 301 228 59 120 65 178 65 620 0 423 -6 479 -53 574 -46 90 -148 180 -244 215 -72 27 -244 34 -313 14z m234 -249 c27 -15 48 -38 65 -72 l26 -49 0 -451 0 -450 -23 -47 c-37 -74 -71 -93 -169 -93 -95 0 -122 14 -163 86 l-25 44 0 462 0 461 31 44 c44 60 95 88 164 88 38 0 67 -7 94 -23z"/>
 <path d="M4844 4461 c-105 -36 -216 -123 -261 -207 -50 -92 -53 -125 -53 -614 1 -470 2 -491 44 -583 34 -76 129 -170 210 -208 136 -63 319 -59 452 9 60 30 136 104 167 159 53 99 75 253 40 288 -13 14 -34 16 -124 13 -59 -1 -110 -6 -114 -9 -3 -4 -10 -34 -15 -68 -10 -70 -43 -135 -83 -165 -24 -17 -43 -21 -111 -21 -74 0 -86 3 -118 27 -73 56 -73 51 -76 543 -2 279 1 453 7 475 13 46 77 114 120 129 47 15 105 14 148 -4 89 -38 112 -88 113 -246 0 -76 -4 -119 -12 -127 -7 -7 -41 -12 -83 -12 -42 0 -76 -5 -83 -12 -14 -14 -16 -166 -2 -188 8 -12 45 -16 211 -18 179 -3 203 -1 220 14 18 16 19 34 19 243 0 308 -14 359 -127 467 -62 59 -133 101 -207 120 -72 19 -219 17 -282 -5z"/>
 <path d="M9158 4460 c-170 -53 -275 -181 -298 -363 -15 -119 3 -137 134 -137 96 0 126 20 126 86 0 114 78 194 190 194 84 0 153 -44 179 -113 16 -41 13 -122 -4 -165 -22 -52 -43 -71 -200 -190 -278 -209 -344 -275 -395 -392 -32 -71 -34 -197 -6 -280 44 -129 147 -231 274 -271 81 -25 230 -28 310 -6 178 51 302 219 302 412 0 34 -5 66 -12 73 -14 14 -205 17 -226 3 -8 -4 -16 -35 -19 -68 -6 -70 -37 -138 -75 -166 -36 -27 -162 -36 -204 -14 -61 32 -77 60 -81 144 -4 73 -3 81 24 123 20 31 85 88 203 180 291 225 375 324 402 468 15 78 1 177 -36 257 -46 101 -169 199 -290 231 -72 19 -228 16 -298 -6z"/>
 <path d="M10615 4465 c-181 -57 -291 -196 -309 -391 -7 -69 -6 -72 20 -93 22 -18 40 -21 111 -21 76 0 86 2 108 25 19 18 25 35 25 69 0 80 31 131 102 167 44 23 125 25 171 5 39 -16 82 -61 96 -99 26 -68 6 -173 -42 -226 -12 -13 -103 -85 -202 -159 -187 -142 -289 -236 -330 -306 -104 -180 -53 -416 117 -542 78 -57 167 -85 278 -86 148 -2 236 29 328 116 84 79 132 191 132 306 -1 84 -9 90 -126 90 -54 0 -105 -4 -112 -9 -8 -4 -17 -37 -22 -73 -7 -63 -29 -118 -56 -145 -41 -41 -168 -57 -223 -28 -16 8 -40 28 -55 45 -23 28 -26 40 -26 104 0 62 4 78 29 117 28 43 65 81 107 110 60 40 267 205 320 256 141 133 197 262 177 408 -6 40 -22 98 -36 128 -46 102 -170 201 -291 233 -63 17 -237 17 -291 -1z"/>
 <path d="M243 4455 l-23 -16 0 -793 c0 -755 1 -794 18 -809 16 -15 47 -17 233 -17 318 1 406 16 519 91 137 92 203 259 180 458 -13 119 -51 198 -135 286 -58 60 -82 78 -140 101 -63 25 -84 28 -225 32 -127 3 -157 7 -167 20 -10 12 -13 92 -13 321 0 172 -4 312 -10 321 -14 23 -207 27 -237 5z m530 -911 c49 -25 66 -44 93 -101 20 -44 24 -69 24 -141 0 -98 -18 -149 -66 -194 -44 -41 -75 -48 -203 -48 -115 0 -119 1 -125 23 -12 44 -7 452 6 465 19 19 231 16 271 -4z"/>
 <path d="M1682 4454 l-22 -15 0 -792 c1 -667 3 -795 15 -811 13 -17 29 -18 282 -13 279 5 317 10 413 56 155 73 250 251 237 441 -10 143 -64 246 -176 334 -37 28 -61 55 -61 66 0 16 90 255 235 619 31 79 31 96 3 115 -34 24 -218 23 -246 -1 -14 -12 -55 -113 -116 -283 -52 -146 -104 -291 -116 -322 l-21 -58 -78 0 c-46 0 -82 5 -89 12 -9 9 -12 95 -12 324 0 372 11 344 -135 344 -66 0 -97 -4 -113 -16z m528 -936 c31 -16 54 -38 75 -72 28 -46 30 -56 30 -151 0 -93 -2 -105 -27 -142 -47 -72 -85 -87 -222 -92 -92 -2 -120 0 -127 10 -10 16 -12 429 -3 453 5 13 25 16 118 16 96 0 118 -3 156 -22z"/>
 <path d="M6003 4458 l-23 -11 0 -802 c0 -699 2 -804 15 -815 22 -18 531 -8 600 13 135 39 233 119 288 236 31 64 32 70 32 201 -1 116 -4 143 -23 190 -27 68 -80 135 -149 190 -37 29 -53 49 -53 65 0 13 59 174 130 358 72 184 128 342 124 350 -10 26 -54 37 -149 37 -84 0 -97 -2 -118 -22 -17 -17 -55 -110 -132 -323 -59 -165 -111 -308 -116 -317 -8 -15 -23 -18 -79 -18 -110 0 -100 -33 -100 331 0 378 11 349 -135 348 -49 0 -100 -5 -112 -11z m523 -935 c35 -20 80 -78 99 -127 26 -67 17 -178 -18 -239 -44 -75 -81 -91 -221 -96 -92 -2 -120 0 -127 10 -12 19 -11 453 0 465 13 13 241 2 267 -13z"/>
 <path d="M7457 4463 c-10 -3 -22 -16 -28 -29 -15 -41 -12 -1553 4 -1584 l13 -25 441 -3 c391 -2 443 0 457 14 23 22 23 186 0 208 -13 14 -56 16 -318 16 -246 0 -306 3 -315 14 -8 9 -11 77 -9 222 l3 209 190 6 c105 3 191 6 192 7 1 1 9 9 17 18 12 11 16 36 16 99 0 119 8 115 -214 115 -128 0 -186 4 -194 12 -9 9 -12 74 -12 230 0 205 1 218 19 228 12 6 132 10 319 10 245 0 302 3 311 14 8 9 11 47 9 107 -3 88 -4 94 -28 106 -19 10 -124 12 -440 12 -228 -1 -423 -3 -433 -6z"/>
 <path d="M10 1002 c-5 -884 -4 -975 11 -988 14 -12 106 -14 637 -12 481 2 624 6 634 16 10 9 -112 12 -608 12 -520 0 -623 2 -640 14 -19 14 -19 39 -24 973 l-5 958 -5 -973z"/>
 <path d="M1450 1002 c-5 -884 -4 -975 11 -988 14 -12 106 -14 637 -12 472 2 624 6 633 15 10 10 -119 13 -606 13 -534 0 -622 2 -642 15 l-23 15 -2 958 -3 957 -5 -973z"/>
 <path d="M5780 1003 c1 -789 3 -971 14 -985 12 -17 54 -18 613 -18 330 0 614 3 632 6 92 19 -37 24 -590 24 -402 0 -617 4 -630 10 -19 10 -19 32 -19 965 0 625 -3 956 -10 960 -7 4 -10 -319 -10 -962z"/>
 <path d="M7230 999 c0 -745 3 -978 12 -987 9 -9 159 -12 614 -12 331 0 615 3 633 6 92 19 -37 24 -590 24 -402 0 -617 4 -630 10 -19 10 -19 32 -19 958 0 594 -4 953 -10 962 -6 10 -10 -327 -10 -961z"/>
 <path d="M8672 999 c-1 -748 1 -978 10 -987 9 -9 159 -12 614 -12 331 0 616 3 634 6 90 18 -46 24 -601 24 -507 0 -608 2 -625 14 -19 14 -19 39 -24 973 l-5 958 -3 -976z"/>
 <path d="M10112 999 c-1 -748 1 -978 10 -987 9 -9 159 -12 614 -12 331 0 616 3 634 6 90 18 -46 24 -601 24 -563 0 -608 1 -628 18 l-21 17 -3 955 -2 955 -3 -976z"/>
 <path d="M2890 1000 c-4 -819 -3 -968 9 -982 13 -17 55 -18 620 -18 333 0 616 3 628 6 72 19 -45 24 -596 24 -565 0 -610 1 -630 18 l-21 17 -3 950 -2 950 -5 -965z"/>
 <path d="M4320 997 c0 -921 1 -965 18 -980 17 -15 74 -17 614 -17 328 0 609 3 627 6 92 19 -36 24 -584 24 -368 0 -614 4 -629 10 l-26 10 0 955 c0 630 -3 955 -10 955 -7 0 -10 -328 -10 -963z"/>
 <path d="M1960 1846 c-120 -34 -229 -126 -287 -244 l-38 -76 -3 -459 c-2 -312 1 -477 8 -513 27 -130 132 -269 243 -323 152 -74 351 -60 483 35 75 53 106 89 145 167 54 107 59 151 59 607 0 344 -3 426 -15 475 -24 91 -54 144 -120 211 -98 99 -188 134 -340 133 -49 0 -110 -6 -135 -13z m230 -246 c47 -24 75 -62 90 -121 7 -30 10 -185 8 -480 l-3 -436 -30 -48 c-42 -67 -83 -87 -167 -83 -75 4 -107 21 -146 78 -41 60 -43 91 -40 538 l3 428 25 49 c20 38 36 55 70 72 58 29 137 30 190 3z"/>
 <path d="M3096 1834 c-14 -14 -16 -101 -16 -808 0 -776 0 -793 20 -811 18 -16 40 -17 282 -12 268 5 289 8 392 52 50 21 135 86 162 122 91 123 118 312 64 455 -28 76 -88 156 -154 207 -39 30 -56 50 -56 66 0 13 59 174 130 358 72 184 130 340 130 346 0 28 -46 41 -140 41 -52 0 -105 -3 -116 -6 -27 -7 -30 -13 -120 -269 -41 -115 -78 -217 -81 -225 -3 -8 -18 -49 -33 -90 l-26 -75 -89 0 -90 0 -5 323 c-4 272 -7 324 -20 332 -8 5 -61 10 -117 10 -79 0 -105 -3 -117 -16z m505 -919 c58 -21 93 -56 120 -122 18 -44 21 -67 17 -131 -6 -98 -33 -151 -97 -189 -41 -24 -59 -28 -154 -31 -75 -3 -112 -1 -122 8 -12 10 -15 49 -15 227 0 129 4 222 10 234 9 17 22 19 104 19 59 0 110 -6 137 -15z"/>
 <path d="M4548 1839 c-17 -9 -18 -59 -18 -812 0 -611 3 -806 12 -815 8 -8 48 -12 113 -12 158 0 145 -32 145 361 0 181 3 329 8 329 4 0 92 -144 196 -321 104 -176 198 -331 208 -344 18 -24 25 -25 123 -25 112 0 141 12 133 54 -3 12 -100 177 -216 367 -117 191 -212 353 -212 360 0 8 106 192 235 408 129 217 235 404 235 417 0 35 -29 44 -146 44 -83 0 -111 -3 -125 -16 -9 -8 -108 -166 -220 -350 -112 -184 -207 -334 -211 -334 -4 0 -8 150 -8 333 0 311 -1 335 -18 350 -15 14 -39 17 -118 17 -54 0 -107 -5 -116 -11z"/>
 <path d="M7490 1830 c-17 -17 -20 -33 -20 -101 0 -120 -2 -119 138 -119 64 0 124 -5 132 -10 13 -8 15 -83 18 -561 2 -484 1 -555 -13 -575 -15 -23 -21 -24 -129 -24 -142 0 -146 -3 -146 -116 0 -56 5 -86 16 -102 l15 -22 388 0 c459 0 421 -11 421 126 0 57 -4 94 -12 102 -8 8 -50 12 -123 12 -96 0 -114 3 -128 18 -15 17 -17 71 -17 575 0 540 1 557 19 567 11 5 67 10 125 10 57 0 111 3 120 6 13 5 16 24 16 110 0 92 -2 104 -19 114 -13 6 -157 10 -400 10 -368 0 -382 -1 -401 -20z"/>
 <path d="M8891 1831 c-21 -21 -21 -23 -21 -804 0 -692 2 -785 16 -805 14 -20 23 -22 124 -22 103 0 110 1 124 22 8 13 61 140 117 283 55 143 105 265 109 270 4 6 10 23 14 39 4 15 15 47 25 70 10 22 26 61 36 86 9 25 22 59 30 75 7 17 18 46 25 65 14 39 35 89 56 135 12 26 14 -43 14 -490 1 -416 3 -523 14 -537 18 -25 180 -26 214 -2 l22 15 0 792 c0 482 -4 798 -10 807 -10 17 -154 27 -215 16 -36 -7 -34 -2 -141 -281 -12 -33 -35 -91 -49 -130 -15 -38 -38 -98 -50 -132 -13 -34 -30 -77 -38 -95 -8 -18 -50 -126 -93 -240 -44 -115 -83 -208 -88 -208 -5 0 -6 218 -2 523 7 455 6 525 -7 542 -13 17 -29 21 -110 23 -86 4 -97 2 -116 -17z"/>
 <path d="M190 1821 c-7 -13 -10 -284 -10 -810 l0 -790 22 -15 c31 -22 185 -22 216 0 l22 15 0 560 c0 362 3 559 10 559 11 0 49 -81 122 -260 28 -69 58 -132 65 -140 13 -13 16 -13 28 3 7 11 42 89 76 175 80 202 88 219 100 201 5 -8 9 -257 9 -554 0 -322 4 -546 10 -555 7 -12 32 -15 120 -15 99 0 113 2 126 19 12 17 14 143 14 807 l0 788 -22 15 c-17 12 -48 16 -125 16 -125 0 -105 24 -223 -268 -61 -151 -90 -212 -101 -212 -11 0 -25 24 -43 73 -81 214 -150 380 -163 393 -11 10 -43 14 -128 14 -103 0 -115 -2 -125 -19z"/>
 </g>
<g id="layer105" fill="#b68c12" stroke="none">
 <path d="M7232 3599 c-1 -748 1 -978 10 -987 15 -15 1263 -18 1272 -3 3 5 -1 12 -10 15 -9 3 -289 6 -623 6 -576 0 -609 1 -624 18 -15 17 -17 102 -20 973 l-2 954 -3 -976z"/>
 <path d="M8672 3599 c-1 -748 1 -978 10 -987 9 -9 165 -12 639 -12 569 0 688 5 616 24 -12 3 -292 6 -623 6 -569 0 -602 1 -617 18 -15 17 -17 102 -20 973 l-2 954 -3 -976z"/>
 <path d="M10112 3599 c-1 -748 1 -978 10 -987 15 -15 1268 -18 1268 -3 0 5 -7 12 -16 15 -9 3 -286 6 -617 6 -362 0 -608 4 -617 10 -13 8 -16 131 -20 972 l-5 963 -3 -976z"/>
 <path d="M32 3594 c-1 -744 1 -973 10 -982 15 -15 1268 -18 1268 -3 0 5 -7 12 -16 15 -9 3 -286 6 -617 6 -362 0 -608 4 -617 10 -13 8 -16 130 -20 967 l-5 958 -3 -971z"/>
 <path d="M1480 3597 c-5 -874 -3 -970 11 -983 13 -12 113 -14 642 -14 361 0 627 4 627 9 0 5 -7 12 -16 15 -9 3 -287 6 -618 6 -466 0 -606 3 -619 13 -16 11 -17 83 -20 967 l-2 955 -5 -968z"/>
 <path d="M5792 3594 c-1 -744 1 -973 10 -982 15 -15 1263 -18 1272 -3 3 5 -1 12 -10 15 -9 3 -289 6 -624 6 -553 0 -609 1 -621 17 -12 13 -15 181 -19 967 l-5 951 -3 -971z"/>
 <path d="M2920 3595 c-3 -625 -2 -966 5 -977 9 -17 50 -18 642 -18 365 0 633 4 633 9 0 5 -7 12 -16 15 -9 3 -287 6 -618 6 -466 0 -606 3 -619 13 -16 11 -17 83 -20 962 l-2 950 -5 -960z"/>
 <path d="M4350 3587 c0 -736 3 -966 12 -975 15 -15 1263 -18 1272 -3 3 5 -1 12 -10 15 -9 3 -286 6 -615 6 -395 0 -607 4 -620 10 -19 10 -19 32 -19 960 0 627 -3 950 -10 950 -7 0 -10 -328 -10 -963z"/>
 <path d="M3410 4466 c-122 -35 -230 -127 -287 -244 l-38 -76 -3 -459 c-2 -312 1 -477 8 -513 27 -127 122 -259 229 -315 58 -30 170 -59 231 -59 53 0 167 27 217 51 65 31 145 110 181 177 56 105 60 133 67 573 8 448 3 522 -44 624 -45 98 -146 190 -248 227 -72 27 -244 34 -313 14z m234 -249 c27 -15 48 -38 65 -72 l26 -49 0 -456 c0 -451 0 -455 -22 -497 -37 -69 -74 -88 -170 -88 -95 0 -122 14 -163 86 l-25 44 0 462 0 461 31 44 c44 60 95 88 164 88 38 0 67 -7 94 -23z"/>
 <path d="M4844 4461 c-151 -51 -262 -165 -298 -306 -22 -83 -23 -946 -2 -1015 33 -104 53 -136 145 -227 76 -74 229 -120 355 -107 123 12 202 45 282 117 82 74 134 196 134 313 0 77 -11 84 -131 84 -116 0 -139 -13 -139 -78 0 -48 -46 -139 -83 -166 -23 -17 -44 -21 -111 -21 -74 0 -86 3 -118 27 -73 56 -73 50 -76 548 -3 491 -2 500 59 557 72 69 197 70 273 4 44 -38 56 -84 56 -209 0 -78 -4 -122 -12 -130 -7 -7 -41 -12 -83 -12 -42 0 -76 -5 -83 -12 -14 -14 -16 -166 -2 -188 8 -12 45 -16 211 -18 179 -3 203 -1 220 14 18 16 19 34 19 243 0 308 -14 359 -127 467 -62 59 -133 101 -207 120 -72 19 -219 17 -282 -5z"/>
 <path d="M9160 4461 c-80 -26 -117 -47 -175 -102 -67 -63 -111 -157 -125 -263 -15 -118 3 -136 136 -136 66 0 78 3 99 25 19 18 25 35 25 70 0 106 81 185 190 185 84 0 153 -44 179 -113 16 -41 13 -122 -4 -165 -22 -51 -43 -72 -180 -175 -289 -217 -365 -292 -416 -407 -33 -75 -33 -208 -1 -291 51 -130 145 -220 270 -260 81 -25 230 -28 310 -6 175 50 301 219 302 405 0 89 -4 92 -123 92 -56 0 -108 -4 -115 -9 -8 -4 -16 -34 -19 -68 -3 -33 -15 -79 -27 -103 -31 -64 -63 -84 -146 -88 -80 -5 -115 6 -155 48 -24 25 -29 39 -33 104 -4 67 -2 79 21 119 29 49 37 56 239 213 157 121 308 263 308 290 0 2 9 17 19 32 11 15 27 60 37 101 21 91 11 187 -29 275 -47 102 -169 200 -291 232 -71 19 -228 16 -296 -5z"/>
 <path d="M10619 4466 c-171 -48 -288 -190 -311 -377 -9 -77 -8 -83 11 -103 18 -18 36 -22 111 -24 84 -4 90 -3 114 22 20 19 26 35 26 70 0 80 31 131 102 167 44 23 125 25 171 5 39 -16 82 -61 96 -99 26 -68 6 -173 -42 -226 -12 -13 -103 -85 -202 -159 -187 -142 -289 -236 -330 -306 -105 -182 -51 -422 123 -546 74 -54 165 -81 272 -82 148 -2 236 29 328 116 84 79 132 191 132 306 -1 84 -9 90 -126 90 -54 0 -105 -4 -112 -9 -8 -4 -17 -37 -22 -73 -16 -131 -59 -178 -171 -186 -81 -6 -117 7 -159 55 -27 31 -30 40 -30 104 0 114 23 145 220 294 160 121 282 233 336 307 93 127 107 279 39 422 -50 105 -167 200 -289 232 -63 17 -225 17 -287 0z"/>
 <path d="M243 4455 l-23 -16 0 -793 c0 -755 1 -794 18 -809 16 -15 47 -17 233 -17 317 1 407 16 517 90 73 50 127 121 159 212 21 60 26 91 26 173 0 60 -7 120 -16 151 -53 177 -184 304 -346 334 -29 5 -109 10 -177 10 -112 0 -124 2 -134 19 -6 12 -10 133 -10 324 0 271 -2 306 -17 318 -26 22 -202 25 -230 4z m530 -911 c49 -25 66 -44 94 -104 21 -46 25 -68 24 -138 -2 -93 -17 -141 -59 -186 -44 -47 -79 -56 -211 -56 -115 0 -119 1 -125 23 -12 44 -7 452 6 465 19 19 231 16 271 -4z"/>
 <path d="M1682 4454 l-22 -15 0 -793 c0 -775 0 -793 20 -811 18 -16 40 -17 282 -12 274 5 313 10 408 56 203 96 297 371 203 596 -26 61 -82 131 -145 181 -36 28 -58 53 -58 65 0 11 50 147 111 302 61 155 121 311 132 345 l22 64 -24 19 c-19 16 -40 19 -120 19 -57 0 -106 -5 -121 -13 -21 -10 -40 -56 -125 -292 -55 -154 -108 -301 -118 -327 l-19 -48 -77 0 c-47 0 -82 5 -89 12 -9 9 -12 95 -12 324 0 372 11 344 -135 344 -66 0 -97 -4 -113 -16z m528 -936 c31 -16 54 -38 75 -72 28 -46 30 -56 30 -151 0 -93 -2 -105 -27 -142 -47 -72 -85 -87 -222 -92 -92 -2 -120 0 -127 10 -10 16 -12 429 -3 453 5 13 25 16 118 16 96 0 118 -3 156 -22z"/>
 <path d="M6003 4458 l-23 -11 0 -802 c0 -697 2 -804 15 -815 22 -18 519 -8 595 12 133 36 238 120 294 238 30 63 31 69 31 200 -1 116 -4 143 -23 190 -27 68 -80 135 -149 190 -37 29 -53 49 -53 65 0 13 59 174 130 358 72 184 128 342 124 350 -10 26 -54 37 -149 37 -84 0 -97 -2 -118 -22 -17 -16 -54 -106 -122 -298 -54 -151 -107 -294 -117 -318 l-18 -43 -82 3 -83 3 -2 320 c-3 383 7 355 -137 354 -50 0 -101 -5 -113 -11z m524 -936 c12 -6 37 -30 56 -52 92 -108 70 -313 -40 -382 -35 -21 -49 -23 -163 -23 l-125 0 -3 229 c-1 131 2 233 7 240 12 15 238 5 268 -12z"/>
 <path d="M7453 4458 l-23 -11 -2 -701 c-2 -386 -3 -744 -3 -797 0 -67 4 -101 14 -112 12 -15 56 -17 452 -17 384 0 439 2 453 16 12 12 16 37 16 104 0 67 -4 92 -16 104 -13 14 -56 16 -318 16 -246 0 -306 3 -315 14 -8 9 -11 77 -9 222 l3 209 190 6 c105 3 191 6 192 7 1 1 9 9 17 18 12 11 16 36 16 99 0 119 8 115 -214 115 -128 0 -186 4 -194 12 -9 9 -12 74 -12 230 0 205 1 218 19 228 12 6 132 10 319 10 245 0 302 3 311 14 8 9 11 47 9 107 -3 88 -4 94 -28 106 -33 17 -843 17 -877 1z"/>
 <path d="M7232 999 c-1 -772 1 -978 11 -985 6 -5 292 -7 647 -4 349 3 627 8 617 13 -10 4 -290 7 -621 7 -504 0 -605 2 -622 14 -19 14 -19 39 -24 973 l-5 958 -3 -976z"/>
 <path d="M8672 999 c-1 -772 1 -978 11 -985 6 -5 292 -7 647 -4 349 3 627 8 617 13 -10 4 -290 7 -622 7 -559 0 -604 1 -624 18 l-21 17 -3 955 -2 955 -3 -976z"/>
 <path d="M10112 999 c-1 -772 1 -978 11 -985 17 -13 1270 -6 1262 6 -4 6 -227 10 -619 10 -580 0 -614 1 -629 18 -15 17 -17 102 -20 973 l-2 954 -3 -976z"/>
 <path d="M10 997 c-4 -853 -3 -970 10 -980 19 -15 1274 -12 1265 3 -4 6 -227 10 -619 10 -580 0 -614 1 -629 18 -15 17 -17 102 -19 968 l-3 949 -5 -968z"/>
 <path d="M1450 997 c-4 -853 -3 -970 10 -980 19 -15 1274 -12 1265 3 -4 6 -227 10 -619 10 -580 0 -614 1 -629 18 -15 17 -17 102 -19 968 l-3 949 -5 -968z"/>
 <path d="M2890 1000 c-4 -732 -2 -969 7 -980 10 -13 91 -15 643 -12 411 1 629 6 625 12 -4 6 -227 10 -619 10 -474 0 -616 3 -629 12 -16 12 -17 84 -20 968 l-2 955 -5 -965z"/>
 <path d="M4322 1001 c-2 -824 0 -967 12 -980 13 -14 81 -16 648 -13 409 2 628 6 618 12 -9 6 -251 10 -621 10 -507 0 -608 2 -625 14 -19 14 -19 39 -24 968 l-5 953 -3 -964z"/>
 <path d="M5782 1001 c-2 -824 0 -967 12 -980 13 -14 81 -16 648 -13 409 2 628 6 618 12 -9 6 -251 10 -621 10 -507 0 -608 2 -625 14 -19 14 -19 39 -24 968 l-5 953 -3 -964z"/>
 <path d="M1960 1846 c-120 -34 -229 -126 -287 -244 l-38 -76 -3 -459 c-2 -312 1 -477 8 -513 19 -89 73 -186 139 -247 72 -66 125 -93 227 -114 200 -41 407 53 498 226 62 118 66 154 66 621 0 342 -3 426 -15 475 -43 164 -165 290 -320 331 -62 17 -215 17 -275 0z m230 -246 c47 -24 75 -62 90 -121 7 -30 10 -185 8 -480 l-3 -436 -30 -48 c-42 -67 -83 -87 -167 -83 -75 4 -107 21 -146 78 -41 61 -43 91 -40 543 l3 432 28 48 c21 35 41 54 70 68 56 25 137 25 187 -1z"/>
 <path d="M3096 1834 c-14 -14 -16 -101 -16 -808 0 -775 0 -793 20 -811 18 -16 40 -17 277 -12 263 5 300 10 398 52 110 48 210 167 237 284 18 76 15 204 -5 272 -23 78 -88 170 -158 225 -41 33 -59 54 -59 69 0 13 59 174 130 358 72 184 130 340 130 346 0 5 -10 17 -22 25 -34 24 -218 23 -248 -2 -15 -12 -55 -113 -133 -332 l-112 -315 -90 0 -90 0 -5 323 c-4 272 -7 324 -20 332 -8 5 -61 10 -117 10 -79 0 -105 -3 -117 -16z m505 -919 c58 -21 93 -56 120 -122 18 -44 21 -67 17 -131 -7 -119 -52 -186 -144 -211 -54 -15 -217 -14 -232 1 -15 15 -17 430 -2 459 9 17 22 19 104 19 59 0 110 -6 137 -15z"/>
 <path d="M4548 1839 c-17 -9 -18 -59 -18 -811 0 -751 1 -802 18 -814 11 -9 49 -13 112 -14 152 0 140 -31 140 361 0 181 4 329 8 329 4 0 16 -15 26 -32 22 -38 257 -436 324 -548 69 -115 60 -110 178 -110 111 0 140 12 132 54 -3 12 -100 177 -216 367 -117 191 -212 352 -212 359 0 14 63 122 312 539 87 145 158 274 158 287 0 13 -9 28 -19 34 -31 16 -222 13 -247 -4 -11 -8 -112 -166 -224 -350 -112 -185 -208 -336 -212 -336 -4 0 -8 150 -8 333 0 311 -1 335 -18 350 -15 14 -39 17 -118 17 -54 0 -107 -5 -116 -11z"/>
 <path d="M7490 1830 c-17 -17 -20 -33 -20 -101 0 -120 -2 -119 138 -119 64 0 124 -5 132 -10 13 -8 15 -83 18 -561 2 -484 1 -555 -13 -575 -15 -23 -21 -24 -129 -24 -142 0 -146 -3 -146 -116 0 -56 5 -86 16 -102 l15 -22 388 0 c459 0 421 -11 421 126 0 57 -4 94 -12 102 -8 8 -50 12 -124 12 -89 0 -116 3 -128 16 -14 14 -16 80 -16 574 0 543 1 560 19 570 11 5 67 10 125 10 57 0 111 3 120 6 23 9 23 195 0 218 -13 14 -64 16 -400 16 -371 0 -385 -1 -404 -20z"/>
 <path d="M8891 1831 c-21 -21 -21 -23 -21 -804 0 -692 2 -785 16 -805 14 -20 23 -22 124 -22 103 0 110 1 124 22 8 13 60 140 116 283 56 143 105 265 110 270 4 6 10 23 14 39 4 15 15 47 25 70 10 22 26 61 36 86 9 25 22 59 30 75 7 17 18 46 25 65 18 49 34 89 53 130 15 33 16 -1 17 -485 0 -416 3 -524 14 -537 18 -25 180 -26 214 -2 l22 15 0 794 0 794 -22 15 c-16 12 -47 16 -108 16 -126 0 -125 0 -161 -94 -57 -148 -120 -310 -144 -371 -13 -33 -72 -187 -132 -342 -59 -156 -112 -283 -117 -283 -5 0 -6 215 -2 523 6 453 5 525 -8 542 -12 17 -28 21 -109 23 -86 4 -97 2 -116 -17z"/>
 <path d="M192 1820 c-9 -15 -12 -198 -12 -809 l0 -790 22 -15 c31 -22 185 -22 216 0 l22 15 0 560 c0 487 2 559 15 559 8 0 17 -12 21 -27 4 -16 12 -37 18 -48 7 -11 38 -85 71 -165 62 -155 78 -181 96 -163 6 6 45 95 87 198 43 103 82 187 87 186 6 -1 12 -197 15 -555 3 -305 9 -558 13 -563 5 -4 58 -8 117 -8 97 0 111 2 124 20 13 17 15 121 16 807 l0 787 -22 15 c-17 12 -48 16 -125 16 -125 0 -105 24 -223 -268 -61 -151 -90 -212 -101 -212 -10 0 -25 23 -42 68 -15 37 -27 71 -27 75 0 4 -9 29 -21 55 -25 55 -27 61 -69 170 -18 46 -39 90 -47 98 -11 10 -43 14 -126 14 -101 0 -113 -2 -125 -20z"/>
 </g>
<g id="layer106" fill="#cd9c11" stroke="none">
 <path d="M8672 3594 c-1 -744 1 -973 10 -982 16 -16 1253 -18 1263 -2 4 7 -197 10 -595 10 -501 0 -606 2 -635 14 l-35 15 -3 958 -2 958 -3 -971z"/>
 <path d="M10112 3594 c-1 -744 1 -973 10 -982 15 -15 1253 -18 1263 -2 4 6 -216 10 -613 12 -506 2 -622 5 -635 17 -15 12 -17 96 -20 970 l-2 956 -3 -971z"/>
 <path d="M7232 3589 c-1 -740 1 -968 10 -977 16 -16 1253 -18 1263 -2 4 7 -197 10 -595 10 -501 0 -606 2 -635 14 l-35 15 -3 953 -2 953 -3 -966z"/>
 <path d="M3410 4466 c-122 -35 -230 -127 -287 -244 l-38 -76 -3 -459 c-2 -302 1 -477 8 -511 26 -128 127 -266 233 -319 56 -29 169 -57 227 -57 53 0 167 27 217 51 108 52 206 183 233 313 7 36 10 204 8 522 l-3 469 -32 68 c-48 101 -152 194 -258 232 -64 23 -242 30 -305 11z m234 -249 c27 -15 48 -38 65 -72 l26 -49 0 -456 c0 -451 0 -455 -22 -497 -37 -69 -74 -88 -170 -88 -95 0 -122 14 -163 86 l-25 44 0 462 0 461 23 31 c12 16 22 34 22 39 0 5 21 21 48 35 62 35 140 36 196 4z"/>
 <path d="M4844 4461 c-106 -36 -207 -116 -259 -204 -52 -90 -55 -124 -55 -617 0 -473 1 -481 44 -582 28 -66 137 -171 213 -206 184 -84 397 -56 539 71 82 74 134 196 134 313 0 77 -11 84 -131 84 -116 0 -139 -13 -139 -78 0 -48 -46 -139 -83 -166 -23 -17 -44 -21 -111 -21 -74 0 -86 3 -118 27 -74 56 -73 50 -76 552 l-3 450 25 50 c34 68 78 97 159 103 90 8 150 -24 188 -99 15 -30 19 -59 19 -156 0 -78 -4 -122 -12 -130 -7 -7 -41 -12 -83 -12 -42 0 -76 -5 -83 -12 -14 -14 -16 -166 -2 -188 8 -12 45 -16 211 -18 181 -3 203 -1 221 15 19 17 19 29 16 268 l-3 250 -31 65 c-56 118 -169 212 -299 246 -71 19 -218 17 -281 -5z"/>
 <path d="M9160 4461 c-80 -26 -109 -43 -172 -103 -80 -76 -119 -164 -132 -295 -4 -41 -1 -57 14 -75 16 -20 29 -23 107 -26 117 -5 134 7 144 101 8 78 38 126 99 157 43 22 122 26 167 9 34 -13 80 -55 99 -91 19 -36 18 -129 -1 -176 -23 -53 -41 -70 -240 -221 -99 -75 -207 -164 -241 -198 -135 -139 -174 -295 -114 -455 66 -178 216 -278 420 -280 148 -2 236 29 328 116 84 79 132 191 132 306 -1 84 -9 90 -126 90 -54 0 -105 -4 -112 -9 -8 -4 -16 -34 -19 -68 -3 -33 -15 -79 -27 -103 -31 -64 -63 -84 -146 -88 -80 -5 -115 6 -156 49 -26 27 -29 39 -32 107 -4 73 -2 79 30 127 32 48 52 66 203 179 255 191 359 309 390 443 34 143 -5 283 -107 384 -61 61 -135 105 -212 125 -71 19 -228 16 -296 -5z"/>
 <path d="M10608 4461 c-172 -55 -277 -186 -300 -372 -9 -77 -9 -83 11 -103 18 -17 36 -22 106 -25 107 -4 135 10 135 68 0 121 85 211 200 211 84 0 153 -44 179 -113 26 -68 6 -173 -42 -226 -12 -13 -103 -85 -202 -160 -190 -144 -289 -235 -329 -304 -133 -228 -12 -528 243 -608 118 -37 286 -26 385 23 56 28 144 115 171 168 34 68 55 147 55 210 0 82 -12 90 -131 90 -52 0 -100 -4 -108 -9 -7 -5 -16 -36 -20 -72 -14 -133 -60 -180 -180 -187 -67 -3 -80 -1 -110 20 -54 37 -74 71 -77 130 -4 90 40 165 138 236 148 108 352 279 389 326 62 81 89 129 104 195 54 219 -89 446 -319 507 -74 20 -228 17 -298 -5z"/>
 <path d="M243 4455 l-23 -16 0 -793 c0 -775 0 -793 20 -811 18 -16 40 -17 282 -12 202 3 277 8 322 21 163 45 273 156 316 317 16 59 16 201 0 269 -42 177 -182 318 -350 350 -29 5 -108 10 -176 10 -112 0 -124 2 -134 19 -6 12 -10 133 -10 324 0 271 -2 306 -17 318 -26 22 -202 25 -230 4z m561 -929 c60 -45 90 -121 91 -226 0 -94 -18 -141 -72 -192 -43 -41 -74 -48 -203 -48 -98 0 -119 3 -124 16 -3 9 -6 116 -6 238 0 164 3 225 13 235 9 9 46 11 138 9 121 -3 127 -4 163 -32z"/>
 <path d="M1682 4454 l-22 -15 0 -793 c0 -775 0 -793 20 -811 18 -16 40 -17 282 -12 274 5 313 10 408 56 155 73 250 251 237 441 -9 135 -71 251 -177 335 -44 33 -60 53 -60 70 0 14 25 86 56 162 128 316 204 526 198 545 -3 11 -17 23 -31 29 -35 13 -194 11 -222 -4 -26 -13 -28 -19 -151 -362 -43 -121 -86 -239 -95 -262 l-17 -43 -77 0 c-47 0 -82 5 -89 12 -9 9 -12 95 -12 324 0 372 11 344 -135 344 -66 0 -97 -4 -113 -16z m538 -939 c19 -12 48 -43 65 -70 27 -43 30 -59 33 -139 3 -80 1 -96 -21 -136 -13 -25 -43 -58 -66 -75 -41 -29 -48 -30 -163 -34 -94 -2 -122 0 -129 10 -12 19 -11 436 0 457 14 26 231 16 281 -13z"/>
 <path d="M6003 4458 l-23 -11 0 -802 c0 -610 3 -804 12 -813 9 -9 73 -12 228 -12 355 1 444 21 563 131 62 57 77 78 103 140 27 68 29 83 28 199 0 104 -4 134 -22 180 -27 68 -80 135 -149 190 -37 29 -53 49 -53 65 0 13 59 174 130 358 72 184 128 342 124 350 -10 26 -54 37 -148 37 -79 0 -97 -3 -120 -21 -14 -11 -26 -25 -26 -30 0 -10 -188 -532 -214 -594 l-15 -36 -83 3 -83 3 -2 320 c-3 383 7 355 -137 354 -50 0 -101 -5 -113 -11z m514 -931 c44 -23 101 -94 114 -141 6 -23 9 -73 7 -112 -6 -86 -39 -150 -95 -186 -35 -21 -49 -23 -163 -23 l-125 0 -3 229 c-2 160 1 233 9 242 17 20 213 13 256 -9z"/>
 <path d="M7453 4458 l-23 -11 0 -802 c0 -610 3 -804 12 -813 9 -9 122 -12 448 -12 514 0 470 -11 470 122 0 126 23 118 -337 118 -243 0 -303 3 -312 14 -8 9 -11 77 -9 222 l3 209 190 6 c105 3 191 6 192 7 1 1 9 9 17 18 12 11 16 36 16 99 0 119 8 115 -214 115 -128 0 -186 4 -194 12 -9 9 -12 74 -12 230 0 205 1 218 19 228 12 6 132 10 319 10 245 0 302 3 311 14 8 9 11 47 9 107 -3 88 -4 94 -28 106 -33 17 -843 17 -877 1z"/>
 <path d="M30 2644 c0 -11 5 -25 12 -32 15 -15 1268 -18 1268 -2 0 6 -224 11 -619 12 -593 3 -620 4 -640 22 -21 19 -21 19 -21 0z"/>
 <path d="M1480 2644 c0 -11 5 -25 12 -32 15 -15 1268 -18 1268 -2 0 6 -224 11 -619 12 -593 3 -620 4 -640 22 -21 19 -21 19 -21 0z"/>
 <path d="M2917 2646 c-3 -8 2 -21 12 -30 16 -14 84 -16 639 -16 394 0 623 4 627 10 4 6 -213 11 -614 12 -579 3 -620 4 -639 21 -16 15 -20 15 -25 3z"/>
 <path d="M4356 2651 c-4 -5 -1 -19 6 -31 13 -20 19 -20 640 -20 407 0 629 4 633 10 4 7 -198 10 -599 10 -592 0 -649 3 -667 32 -5 7 -9 7 -13 -1z"/>
 <path d="M5790 2641 c0 -41 -1 -41 651 -41 408 0 630 4 634 10 4 7 -199 10 -602 10 -577 0 -611 1 -646 19 -34 17 -37 17 -37 2z"/>
 <path d="M8672 1003 c-1 -529 1 -968 4 -977 6 -14 71 -16 643 -16 414 0 631 4 621 10 -9 6 -247 10 -621 10 -468 0 -609 3 -622 12 -16 12 -17 84 -20 968 l-2 955 -3 -962z"/>
 <path d="M10112 994 c-1 -602 2 -974 7 -980 6 -5 253 -8 643 -6 410 2 628 6 618 12 -9 6 -251 10 -621 10 -468 0 -609 3 -622 12 -16 12 -17 84 -20 968 l-2 955 -3 -971z"/>
 <path d="M7232 994 c-1 -736 1 -963 10 -972 9 -9 166 -12 648 -11 363 0 626 4 615 9 -11 5 -293 9 -626 9 -467 1 -609 4 -622 14 -16 11 -17 83 -20 962 l-2 950 -3 -961z"/>
 <path d="M1960 1846 c-70 -20 -123 -51 -187 -110 -65 -60 -108 -130 -129 -210 -21 -77 -20 -895 1 -984 60 -254 289 -397 556 -346 82 16 154 54 225 121 53 50 81 96 117 193 20 52 21 78 25 493 2 300 0 455 -8 493 -35 168 -165 308 -325 350 -62 17 -215 17 -275 0z m230 -246 c47 -24 75 -62 90 -121 7 -30 10 -185 8 -479 -3 -428 -3 -436 -25 -477 -37 -68 -74 -88 -165 -88 -85 0 -114 14 -156 75 -41 61 -43 91 -40 543 l3 432 28 48 c21 35 41 54 70 68 56 25 137 25 187 -1z"/>
 <path d="M3096 1834 c-14 -14 -16 -101 -16 -808 0 -775 0 -793 20 -811 18 -16 40 -17 277 -12 263 5 300 10 398 52 49 21 130 85 163 128 56 74 76 135 80 254 4 93 1 123 -17 181 -25 83 -79 160 -156 221 -38 30 -55 51 -55 67 0 12 56 166 124 341 152 392 142 357 117 382 -19 19 -33 21 -125 21 -84 0 -108 -3 -125 -17 -12 -10 -38 -65 -60 -128 -22 -60 -69 -193 -105 -295 -37 -102 -71 -195 -76 -208 -9 -22 -14 -23 -97 -20 l-88 3 -3 314 c-2 275 -4 317 -19 333 -14 15 -32 18 -119 18 -80 0 -106 -3 -118 -16z m497 -915 c53 -14 101 -60 127 -121 19 -44 22 -65 18 -133 -5 -96 -31 -150 -91 -192 -38 -26 -48 -28 -160 -32 -93 -2 -121 0 -128 10 -13 20 -11 436 1 460 9 17 22 19 103 19 51 0 109 -5 130 -11z"/>
 <path d="M4548 1839 c-17 -9 -18 -59 -18 -808 0 -760 1 -799 18 -814 15 -13 39 -17 113 -17 151 0 139 -31 139 361 0 181 3 329 8 329 4 0 41 -57 81 -127 41 -71 89 -150 106 -178 39 -61 102 -167 118 -197 33 -62 100 -168 112 -178 10 -8 50 -11 120 -8 112 3 129 11 122 53 -2 11 -99 177 -216 368 -142 231 -211 354 -208 366 4 18 363 628 433 738 38 60 43 97 15 113 -11 5 -67 10 -125 10 -95 0 -107 -2 -129 -22 -14 -13 -108 -160 -209 -328 -225 -373 -211 -350 -220 -350 -5 0 -8 150 -8 333 0 311 -1 335 -18 350 -15 14 -39 17 -118 17 -54 0 -107 -5 -116 -11z"/>
 <path d="M7490 1830 c-17 -17 -20 -33 -20 -101 0 -121 -2 -119 140 -119 94 0 122 -3 134 -16 14 -14 16 -78 16 -562 0 -479 -2 -550 -16 -570 -14 -21 -23 -22 -128 -22 -143 0 -146 -3 -146 -118 0 -131 -33 -122 423 -122 454 0 417 -11 417 126 0 57 -4 94 -12 102 -8 8 -51 12 -128 12 -77 0 -120 4 -128 12 -9 9 -12 150 -12 575 0 546 1 563 19 573 11 5 69 10 128 10 72 0 113 4 121 12 19 19 16 193 -4 212 -13 14 -64 16 -400 16 -371 0 -385 -1 -404 -20z"/>
 <path d="M8891 1831 c-21 -21 -21 -23 -21 -804 0 -692 2 -785 16 -805 14 -20 23 -22 124 -22 103 0 110 1 124 22 8 13 82 195 165 405 82 211 157 398 164 415 8 18 32 78 53 133 l39 100 3 -519 c2 -466 4 -522 19 -538 22 -24 177 -26 211 -2 l22 15 0 790 c0 925 15 829 -127 829 -129 0 -128 0 -164 -94 -17 -44 -50 -130 -74 -191 -23 -60 -103 -266 -176 -457 -74 -191 -138 -348 -143 -348 -6 0 -6 210 -2 523 6 448 5 525 -8 542 -12 17 -29 21 -109 23 -86 4 -97 2 -116 -17z"/>
 <path d="M197 1822 c-16 -17 -17 -88 -17 -809 0 -633 3 -793 13 -801 19 -16 213 -17 232 -2 13 11 15 87 15 571 0 487 2 559 15 559 8 0 18 -12 21 -27 4 -16 10 -32 14 -38 4 -5 36 -80 70 -165 67 -165 83 -191 101 -173 6 6 45 95 87 198 43 103 82 187 87 186 6 -1 11 -193 13 -550 2 -464 4 -551 17 -561 9 -7 52 -12 120 -12 91 1 109 3 121 19 11 15 13 152 14 805 l0 787 -22 15 c-17 12 -48 16 -125 16 -96 0 -104 -2 -117 -23 -12 -18 -145 -335 -187 -444 -5 -13 -14 -20 -22 -17 -13 5 -67 122 -67 144 0 6 -9 32 -21 58 -34 75 -37 83 -69 170 -17 45 -38 89 -46 97 -12 11 -41 15 -123 15 -92 0 -110 -3 -124 -18z"/>
 <path d="M12 45 l3 -30 640 -2 c366 -1 631 2 620 7 -11 5 -293 9 -627 9 l-607 1 -16 23 -16 22 3 -30z"/>
 <path d="M1447 51 c-2 -11 0 -24 6 -30 8 -8 202 -11 647 -10 363 0 626 4 615 9 -11 5 -293 9 -627 9 -599 1 -607 1 -621 21 -14 20 -15 20 -20 1z"/>
 <path d="M5780 54 c0 -45 -8 -44 660 -43 363 0 626 4 615 9 -11 5 -292 9 -624 9 l-605 1 -23 22 c-22 21 -23 21 -23 2z"/>
 <path d="M2887 47 c-14 -36 6 -37 653 -37 413 0 630 4 620 10 -9 6 -248 10 -624 10 -535 0 -612 2 -626 15 -15 14 -18 14 -23 2z"/>
 <path d="M4325 50 c-4 -6 -1 -17 5 -25 11 -13 103 -15 649 -14 364 0 627 4 616 9 -11 5 -292 9 -624 9 -534 1 -606 3 -622 17 -12 11 -19 12 -24 4z"/>
 </g>
<g id="layer107" fill="#daa611" stroke="none">
 <path d="M3410 4466 c-120 -34 -229 -126 -287 -244 l-38 -76 -3 -459 c-2 -302 1 -477 8 -511 26 -128 127 -266 233 -319 56 -29 169 -57 227 -57 53 0 167 27 217 51 108 52 206 183 233 313 7 36 10 204 8 522 l-3 469 -31 66 c-54 114 -173 212 -298 245 -63 17 -205 17 -266 0z m234 -249 c27 -15 48 -38 65 -72 l26 -49 0 -456 c0 -451 0 -455 -22 -497 -37 -69 -74 -88 -170 -88 -95 0 -122 14 -163 86 l-25 44 0 462 0 461 23 31 c12 16 22 34 22 38 0 9 32 32 70 50 43 20 130 15 174 -10z"/>
 <path d="M4844 4461 c-106 -36 -207 -116 -259 -204 -52 -90 -55 -124 -55 -617 0 -473 1 -481 44 -582 28 -66 137 -171 213 -206 226 -104 500 -29 616 169 52 88 75 249 41 283 -12 12 -38 16 -115 16 -116 0 -139 -13 -139 -78 0 -48 -46 -139 -83 -166 -23 -17 -44 -21 -111 -21 -74 0 -86 3 -118 27 -74 56 -73 50 -76 552 l-3 450 26 52 c33 68 75 95 159 101 89 8 149 -24 187 -99 15 -30 19 -59 19 -156 0 -78 -4 -122 -12 -130 -7 -7 -41 -12 -85 -12 -88 0 -93 -6 -93 -114 0 -107 -3 -106 236 -106 172 0 193 2 207 18 15 16 17 48 17 238 0 235 -9 298 -53 378 -53 95 -167 182 -282 212 -71 19 -218 17 -281 -5z"/>
 <path d="M9147 4455 c-81 -28 -102 -41 -166 -103 -74 -71 -118 -175 -123 -289 -4 -88 7 -97 122 -101 84 -4 90 -3 114 22 20 19 26 35 26 70 0 53 14 93 43 124 75 81 225 83 294 4 34 -38 43 -65 43 -128 0 -60 -19 -116 -53 -153 -12 -13 -103 -85 -202 -160 -267 -202 -334 -278 -371 -422 -19 -75 -14 -151 16 -231 66 -178 216 -278 420 -280 148 -2 236 29 328 116 84 79 132 191 132 306 -1 84 -9 90 -126 90 -54 0 -105 -4 -112 -8 -6 -5 -16 -41 -21 -80 -16 -128 -60 -174 -171 -180 -80 -5 -115 6 -156 49 -25 26 -29 39 -32 103 -3 58 0 81 16 112 20 37 74 95 118 125 47 31 226 171 293 229 196 170 257 370 169 562 -47 103 -171 202 -292 234 -83 22 -229 17 -309 -11z"/>
 <path d="M10610 4461 c-80 -26 -117 -47 -175 -102 -67 -63 -111 -157 -125 -263 -15 -118 3 -136 133 -136 95 0 117 14 117 76 0 116 86 204 200 204 84 0 153 -44 179 -113 16 -41 13 -122 -4 -165 -22 -51 -43 -72 -180 -175 -315 -237 -388 -312 -426 -439 -65 -214 62 -451 279 -519 119 -37 287 -27 386 23 57 29 144 115 172 170 32 63 54 150 54 214 0 75 -14 84 -131 84 -52 0 -100 -4 -108 -9 -8 -5 -16 -36 -20 -72 -8 -74 -35 -134 -75 -163 -21 -16 -46 -22 -104 -24 -67 -3 -81 -1 -111 20 -49 33 -72 69 -78 122 -10 85 34 164 133 240 169 129 219 169 294 235 90 80 94 85 152 167 157 223 17 555 -266 630 -71 19 -228 16 -296 -5z"/>
 <path d="M341 4462 c-52 -1 -101 -8 -108 -14 -10 -8 -13 -164 -13 -803 0 -754 1 -793 18 -808 16 -15 47 -17 233 -17 317 1 407 16 517 90 117 79 183 214 184 376 1 162 -42 276 -143 376 -99 99 -187 128 -395 128 -112 0 -124 2 -134 19 -6 12 -10 133 -10 324 0 314 0 317 -40 328 -8 2 -58 3 -109 1z m463 -936 c60 -45 90 -121 91 -226 0 -94 -18 -141 -72 -192 -43 -41 -74 -48 -203 -48 -98 0 -119 3 -124 16 -3 9 -6 116 -6 238 0 164 3 225 13 235 9 9 46 11 138 9 121 -3 127 -4 163 -32z"/>
 <path d="M1679 4452 c-18 -13 -19 -44 -19 -806 0 -775 0 -793 20 -811 18 -16 40 -17 282 -12 274 5 313 10 408 56 156 74 252 256 236 448 -11 133 -71 245 -176 328 -44 34 -60 53 -60 71 0 13 40 124 89 246 155 389 174 444 161 467 -6 12 -18 21 -28 21 -139 4 -227 0 -237 -12 -7 -7 -52 -123 -100 -258 -49 -135 -100 -279 -115 -320 l-27 -75 -78 -3 c-48 -2 -82 1 -91 9 -11 9 -14 68 -14 324 0 260 -2 315 -14 325 -21 17 -213 19 -237 2z m532 -933 c30 -17 54 -42 77 -79 29 -50 32 -61 32 -140 0 -105 -23 -159 -89 -205 -41 -29 -48 -30 -163 -34 -94 -2 -122 0 -129 10 -13 20 -11 436 1 460 10 17 20 19 119 15 92 -3 116 -7 152 -27z"/>
 <path d="M5999 4452 c-18 -13 -19 -43 -19 -811 0 -606 3 -800 12 -809 9 -9 73 -12 228 -12 243 1 321 8 421 41 59 20 81 34 143 94 56 53 81 86 102 135 27 61 29 73 29 195 -1 110 -4 138 -23 185 -27 68 -80 135 -149 190 -37 29 -53 49 -53 65 0 19 101 292 240 648 33 82 10 96 -140 91 -84 -2 -107 -7 -120 -21 -9 -10 -51 -115 -93 -233 -42 -118 -94 -260 -114 -315 l-38 -100 -85 0 -85 0 -3 321 c-2 274 -5 324 -18 334 -21 18 -210 19 -235 2z m510 -922 c48 -22 108 -93 122 -144 6 -23 9 -73 7 -112 -6 -86 -39 -150 -95 -186 -35 -21 -49 -23 -163 -23 l-125 0 -3 229 c-2 166 1 232 10 243 17 21 195 15 247 -7z"/>
 <path d="M7450 4456 c-20 -9 -20 -16 -20 -811 0 -610 3 -804 12 -813 9 -9 121 -12 443 -12 373 0 433 2 453 16 20 14 22 24 22 103 0 72 -3 91 -18 104 -16 15 -53 17 -318 17 -220 0 -303 3 -312 12 -16 16 -17 424 -2 433 6 4 87 6 180 5 166 -1 203 5 222 34 4 6 8 48 8 93 0 117 7 113 -214 113 -128 0 -186 4 -194 12 -9 9 -12 74 -12 230 0 205 1 218 19 228 12 6 132 10 320 10 287 0 301 1 311 19 15 29 13 186 -3 199 -16 14 -867 21 -897 8z"/>
 <path d="M8671 2650 c0 -15 4 -31 11 -38 15 -15 1234 -17 1258 -2 10 6 -198 10 -597 10 -628 0 -656 2 -666 39 -3 9 -5 5 -6 -9z"/>
 <path d="M10111 2650 c0 -15 4 -31 11 -38 15 -15 1234 -17 1258 -2 10 6 -198 10 -597 10 -628 0 -656 2 -666 39 -3 9 -5 5 -6 -9z"/>
 <path d="M7230 2643 c0 -11 5 -24 12 -31 15 -15 1234 -17 1258 -2 10 6 -200 10 -601 10 -608 0 -617 0 -643 21 -25 19 -26 20 -26 2z"/>
 <path d="M30 2637 c0 -36 9 -37 640 -37 380 0 621 4 630 10 10 6 -199 10 -598 10 -530 0 -617 2 -642 15 -24 12 -30 13 -30 2z"/>
 <path d="M1480 2637 c0 -36 9 -37 640 -37 380 0 621 4 630 10 10 6 -199 10 -598 10 -530 0 -617 2 -642 15 -24 12 -30 13 -30 2z"/>
 <path d="M2916 2643 c-3 -4 1 -15 11 -25 15 -17 48 -18 632 -18 380 0 622 4 631 10 10 6 -201 10 -605 10 -529 0 -624 2 -641 15 -12 8 -24 11 -28 8z"/>
 <path d="M4356 2643 c-3 -4 1 -15 11 -25 15 -17 48 -18 634 -18 401 0 620 4 624 10 4 7 -201 10 -607 10 -523 0 -617 2 -634 15 -12 8 -24 11 -28 8z"/>
 <path d="M5790 2644 c0 -3 5 -14 10 -25 10 -18 28 -19 628 -19 381 0 623 4 632 10 10 6 -199 10 -601 10 -525 0 -618 2 -635 15 -20 15 -34 19 -34 9z"/>
 <path d="M1960 1846 c-152 -43 -288 -184 -319 -334 -18 -85 -15 -879 4 -965 25 -121 109 -240 215 -304 121 -74 348 -74 471 0 98 59 167 145 211 263 21 57 22 75 26 491 2 276 0 452 -7 490 -31 171 -162 316 -326 359 -62 17 -215 17 -275 0z m230 -246 c21 -11 47 -32 58 -47 41 -58 43 -89 40 -548 -3 -408 -4 -443 -22 -478 -51 -103 -204 -132 -292 -55 -72 63 -69 41 -69 553 l0 460 28 47 c17 29 42 56 65 68 50 26 140 26 192 0z"/>
 <path d="M3097 1832 c-16 -17 -17 -88 -17 -809 0 -772 0 -790 20 -808 18 -16 40 -17 277 -12 315 6 370 18 484 109 70 55 82 70 121 148 32 63 33 67 33 200 -1 116 -4 143 -23 190 -27 68 -80 135 -149 190 -37 29 -53 49 -53 65 0 13 56 167 124 342 152 392 142 357 117 382 -19 19 -33 21 -125 21 -84 0 -108 -3 -125 -17 -12 -11 -38 -66 -62 -133 -22 -63 -73 -205 -113 -315 l-72 -200 -89 0 -90 0 -3 314 c-2 275 -4 317 -19 333 -13 15 -32 18 -118 18 -86 0 -104 -3 -118 -18z m519 -921 c49 -22 97 -78 113 -130 6 -21 11 -70 11 -108 0 -88 -32 -158 -92 -199 -39 -27 -48 -29 -161 -33 -93 -2 -121 0 -128 10 -13 20 -11 436 1 460 10 17 22 19 113 19 78 0 112 -5 143 -19z"/>
 <path d="M4546 1834 c-14 -14 -16 -101 -16 -808 0 -755 1 -794 18 -809 15 -13 39 -17 113 -17 151 0 139 -31 139 361 0 181 3 329 8 329 4 0 43 -60 86 -132 168 -286 315 -529 327 -544 10 -13 33 -15 121 -12 115 3 132 11 125 53 -2 11 -99 177 -216 368 -139 227 -211 354 -208 366 4 15 290 506 356 611 8 14 24 41 34 60 11 19 32 54 48 78 34 50 37 87 10 102 -11 5 -67 10 -124 10 -85 0 -109 -3 -126 -17 -11 -10 -106 -157 -209 -328 -229 -377 -215 -355 -224 -355 -5 0 -8 150 -8 334 0 398 13 366 -142 366 -74 0 -100 -4 -112 -16z"/>
 <path d="M7490 1830 c-17 -17 -20 -33 -20 -101 0 -121 -2 -119 140 -119 94 0 122 -3 134 -16 14 -14 16 -78 16 -562 0 -479 -2 -550 -16 -570 -14 -21 -23 -22 -129 -22 -140 0 -145 -4 -145 -122 0 -127 -31 -118 423 -118 454 0 417 -11 417 126 0 57 -4 94 -12 102 -8 8 -51 12 -128 12 -77 0 -120 4 -128 12 -9 9 -12 150 -12 575 0 546 1 563 19 573 11 5 69 10 128 10 72 0 113 4 121 12 8 8 12 46 12 103 0 76 -3 95 -18 108 -17 15 -59 17 -400 17 -369 0 -383 -1 -402 -20z"/>
 <path d="M8890 1830 c-20 -20 -20 -33 -20 -803 0 -692 2 -785 16 -805 14 -20 23 -22 124 -22 103 0 110 1 124 22 8 13 44 100 81 193 36 94 128 325 203 515 l137 345 3 -519 c2 -466 4 -522 19 -538 22 -24 177 -26 211 -2 l22 15 0 790 c0 927 16 829 -134 829 -75 0 -98 -4 -115 -17 -17 -15 -63 -125 -162 -388 -123 -326 -266 -685 -273 -685 -6 0 -7 206 -3 515 5 368 4 522 -4 539 -14 30 -34 36 -131 36 -65 0 -81 -3 -98 -20z"/>
 <path d="M197 1822 c-16 -17 -17 -87 -17 -808 0 -601 3 -793 12 -802 16 -16 220 -16 236 0 9 9 12 149 12 570 0 455 2 558 13 558 8 0 46 -79 92 -192 82 -203 97 -230 116 -211 6 6 45 95 87 198 43 103 82 188 87 189 7 1 11 -189 13 -548 1 -385 5 -553 13 -563 8 -9 42 -13 122 -13 93 0 112 3 123 17 11 15 13 166 14 805 l0 787 -22 15 c-17 12 -48 16 -125 16 -96 0 -104 -1 -118 -23 -8 -13 -55 -122 -104 -242 -50 -124 -96 -221 -103 -223 -9 -2 -19 11 -26 30 -19 58 -62 172 -72 193 -6 11 -30 72 -55 134 -25 63 -51 118 -58 123 -6 4 -60 8 -118 8 -90 0 -108 -3 -122 -18z"/>
 <path d="M8670 53 c0 -44 -7 -43 655 -41 l630 3 -623 5 -624 5 -19 24 c-17 21 -19 21 -19 4z"/>
 <path d="M10112 45 l3 -30 640 0 640 0 -623 5 -624 5 -20 25 -20 24 4 -29z"/>
 <path d="M11 40 l4 -25 640 0 640 0 -621 5 c-604 5 -623 6 -644 25 l-22 20 3 -25z"/>
 <path d="M5780 47 c0 -37 8 -37 660 -35 l635 3 -620 5 c-572 5 -623 6 -648 23 -20 13 -27 14 -27 4z"/>
 <path d="M7230 49 c0 -39 4 -39 655 -37 l630 3 -621 5 c-594 5 -623 6 -643 24 -16 15 -21 16 -21 5z"/>
 <path d="M1452 33 c3 -17 31 -18 643 -18 l640 0 -620 5 c-491 4 -625 8 -643 18 -21 12 -23 12 -20 -5z"/>
 <path d="M2886 43 c-3 -3 -1 -12 5 -20 9 -11 125 -13 648 -11 l636 3 -620 5 c-460 4 -625 8 -641 17 -12 7 -24 9 -28 6z"/>
 <path d="M4326 43 c-3 -3 -1 -12 5 -20 9 -11 125 -13 648 -11 l636 3 -620 5 c-460 4 -625 8 -641 17 -12 7 -24 9 -28 6z"/>
 </g>
<g id="layer108" fill="#fec00f" stroke="none">
 <path d="M3410 4466 c-120 -34 -229 -126 -287 -244 l-38 -76 -3 -453 c-2 -286 1 -474 7 -510 17 -92 72 -193 140 -256 70 -65 124 -92 217 -112 92 -19 126 -19 218 5 145 37 236 109 297 234 48 100 50 129 47 632 l-3 469 -28 59 c-56 120 -174 218 -302 252 -62 17 -205 16 -265 0z m230 -246 c25 -13 49 -37 67 -67 l28 -48 0 -460 c0 -430 -1 -462 -19 -495 -30 -56 -57 -79 -110 -95 -41 -12 -62 -13 -103 -5 -63 13 -96 38 -126 93 -22 42 -22 46 -22 502 l0 460 28 47 c17 29 42 56 65 68 51 26 140 27 192 0z"/>
 <path d="M4844 4461 c-106 -36 -207 -116 -259 -204 -52 -90 -55 -124 -55 -612 0 -475 2 -502 48 -592 12 -23 47 -69 78 -102 193 -209 540 -193 722 33 64 80 106 281 66 320 -12 12 -38 16 -115 16 -117 0 -139 -13 -139 -79 0 -49 -29 -118 -63 -150 -68 -62 -200 -58 -266 8 -60 60 -61 71 -61 554 l0 435 28 53 c35 67 90 99 169 99 81 0 139 -34 174 -102 25 -48 37 -225 19 -268 -12 -29 -14 -30 -88 -30 -94 0 -101 -7 -102 -112 0 -110 -4 -108 236 -108 172 0 193 2 207 18 15 16 17 48 17 238 0 304 -18 364 -141 479 -102 94 -186 125 -334 124 -58 0 -108 -7 -141 -18z"/>
 <path d="M9148 4456 c-179 -62 -288 -216 -284 -402 1 -62 3 -70 26 -81 14 -7 59 -13 101 -13 97 0 117 14 125 85 7 73 21 108 52 137 43 41 87 58 144 57 73 -1 117 -19 152 -63 53 -66 48 -197 -11 -267 -15 -17 -107 -92 -207 -167 -100 -75 -209 -166 -244 -201 -114 -117 -157 -246 -128 -385 25 -124 67 -193 159 -262 76 -57 165 -85 277 -86 148 -2 236 29 328 116 84 79 132 190 132 307 0 80 -13 89 -131 89 -52 0 -100 -4 -107 -8 -6 -5 -16 -40 -21 -78 -14 -117 -51 -164 -141 -183 -80 -17 -146 3 -194 59 -23 27 -26 41 -26 101 0 114 24 145 220 294 154 117 282 234 336 308 92 125 107 280 40 421 -49 104 -169 200 -290 232 -82 22 -229 17 -308 -10z"/>
 <path d="M10599 4457 c-163 -55 -266 -184 -289 -361 -15 -118 3 -136 133 -136 95 0 117 14 117 76 0 116 86 204 200 204 84 0 153 -44 179 -113 16 -41 13 -122 -4 -165 -22 -51 -43 -72 -180 -175 -289 -217 -365 -292 -416 -407 -31 -71 -33 -198 -5 -280 64 -186 221 -292 436 -291 154 0 244 35 332 129 25 27 55 67 66 89 28 54 52 151 52 210 0 74 -15 83 -131 83 -52 0 -100 -4 -107 -8 -7 -5 -15 -33 -18 -63 -13 -123 -55 -179 -147 -199 -159 -33 -268 93 -211 242 23 60 57 93 229 226 334 259 430 403 396 593 -12 72 -49 156 -91 209 -42 53 -139 116 -217 140 -92 28 -234 27 -324 -3z"/>
 <path d="M230 4441 c-7 -13 -10 -282 -10 -804 0 -766 0 -784 20 -802 18 -16 40 -17 282 -12 202 3 277 8 322 21 209 59 328 222 328 452 0 155 -44 268 -143 366 -99 99 -187 128 -395 128 -112 0 -124 2 -134 19 -6 12 -10 133 -10 323 0 223 -3 307 -12 316 -8 8 -50 12 -125 12 -101 0 -113 -2 -123 -19z m534 -891 c43 -14 79 -53 108 -115 18 -40 23 -68 23 -135 0 -97 -17 -140 -80 -200 l-36 -35 -136 -3 c-105 -3 -138 -1 -144 10 -5 7 -9 114 -9 237 0 181 3 228 14 240 12 13 35 16 121 14 59 -1 121 -7 139 -13z"/>
 <path d="M1672 4448 c-9 -9 -12 -201 -12 -803 0 -774 0 -792 20 -810 18 -16 40 -17 282 -12 327 6 379 18 497 117 110 92 169 267 143 423 -22 125 -76 215 -179 297 -37 29 -53 49 -53 65 0 13 45 138 99 277 171 437 163 415 151 438 -10 18 -20 20 -134 20 -87 0 -126 -4 -133 -12 -6 -7 -58 -148 -117 -313 -58 -165 -111 -310 -116 -322 -9 -21 -16 -23 -88 -23 -47 0 -83 5 -90 12 -9 9 -12 94 -12 323 0 229 -3 314 -12 323 -17 17 -229 17 -246 0z m518 -919 c59 -26 77 -44 108 -104 53 -100 29 -254 -49 -319 -42 -35 -89 -46 -205 -46 -84 0 -103 3 -108 16 -11 27 -7 434 4 455 16 28 185 28 250 -2z"/>
 <path d="M5992 4448 c-9 -9 -12 -202 -12 -809 0 -694 2 -798 15 -809 22 -18 521 -8 590 13 144 43 233 114 292 235 l38 76 0 130 c-1 111 -4 139 -23 186 -27 68 -80 135 -149 190 -37 29 -53 49 -53 65 0 13 36 116 80 230 44 113 89 229 99 258 11 29 31 83 45 121 30 79 33 111 10 120 -9 3 -66 6 -128 6 -97 0 -115 -3 -129 -18 -10 -10 -17 -24 -17 -30 0 -7 -11 -40 -24 -74 -30 -81 -64 -172 -120 -328 -24 -69 -54 -147 -65 -173 l-21 -48 -82 3 -83 3 -5 320 c-3 176 -9 326 -13 333 -11 17 -228 17 -245 0z m513 -917 c53 -24 111 -90 126 -143 6 -24 9 -75 7 -114 -6 -86 -39 -150 -95 -186 -35 -21 -49 -23 -163 -23 l-125 0 -3 229 c-2 160 1 233 9 242 18 22 193 19 244 -5z"/>
 <path d="M7443 4453 c-18 -7 -19 -1603 -1 -1621 9 -9 121 -12 443 -12 373 0 433 2 453 16 20 14 22 24 22 103 0 72 -3 91 -18 104 -16 15 -53 17 -318 17 -220 0 -303 3 -312 12 -9 9 -12 71 -12 220 0 197 1 208 20 218 12 7 87 10 192 9 210 -1 208 -2 208 120 0 42 -5 83 -10 91 -8 12 -43 16 -197 18 -112 2 -193 8 -200 14 -10 8 -13 64 -13 229 0 206 1 219 19 229 12 6 132 10 320 10 287 0 301 1 311 19 14 28 13 184 -2 199 -9 9 -122 12 -453 11 -242 0 -446 -3 -452 -6z"/>
 <path d="M8670 2643 c0 -5 6 -16 13 -24 10 -12 101 -13 637 -9 l625 5 -622 3 c-550 2 -623 4 -637 18 -9 8 -16 11 -16 7z"/>
 <path d="M10110 2637 c0 -8 6 -18 13 -23 6 -5 288 -7 637 -4 l625 5 -622 3 c-550 2 -623 4 -637 18 -13 13 -16 13 -16 1z"/>
 <path d="M30 2632 c0 -5 6 -13 13 -18 6 -5 288 -7 637 -4 l625 5 -618 3 c-403 1 -625 6 -638 12 -10 6 -19 7 -19 2z"/>
 <path d="M1482 2629 c4 -12 107 -14 639 -14 l634 0 -625 5 c-344 3 -631 9 -639 14 -10 6 -12 5 -9 -5z"/>
 <path d="M2920 2632 c0 -5 6 -13 13 -18 6 -5 288 -7 637 -4 l625 5 -618 3 c-403 1 -625 6 -638 12 -10 6 -19 7 -19 2z"/>
 <path d="M4359 2627 c12 -16 63 -17 640 -15 l626 3 -620 5 c-353 3 -629 9 -640 14 -18 9 -19 8 -6 -7z"/>
 <path d="M5799 2627 c12 -16 63 -17 640 -15 l626 3 -620 5 c-353 3 -629 9 -640 14 -18 9 -19 8 -6 -7z"/>
 <path d="M7240 2624 c11 -18 31 -19 638 -14 l627 5 -620 5 c-341 3 -628 9 -638 14 -17 8 -18 7 -7 -10z"/>
 <path d="M1960 1846 c-25 -7 -64 -22 -87 -34 -60 -31 -155 -122 -186 -179 -54 -100 -57 -130 -57 -588 0 -261 4 -444 11 -480 31 -168 159 -315 312 -360 122 -35 301 -14 390 47 119 80 185 182 212 321 21 112 22 811 0 921 -33 174 -155 308 -320 352 -62 17 -215 17 -275 0z m224 -240 c36 -15 69 -52 94 -106 15 -31 17 -87 19 -445 3 -446 -1 -495 -50 -558 -14 -19 -41 -42 -60 -51 -42 -19 -126 -21 -170 -2 -44 18 -94 77 -107 126 -7 27 -10 184 -8 478 l3 437 28 47 c36 61 83 87 160 88 32 0 72 -6 91 -14z"/>
 <path d="M3102 1834 l-22 -15 0 -793 c0 -775 0 -793 20 -811 18 -16 40 -17 277 -12 269 5 308 11 404 56 76 36 160 119 199 197 35 69 35 69 35 204 -1 116 -4 143 -23 190 -27 68 -80 135 -149 190 -37 29 -53 49 -53 65 0 13 56 167 124 342 152 392 142 357 117 382 -19 19 -33 21 -125 21 -84 0 -108 -3 -125 -17 -13 -11 -39 -70 -68 -153 -26 -74 -76 -216 -112 -315 l-66 -180 -90 0 -90 0 -2 315 c-3 377 7 350 -137 350 -67 0 -98 -4 -114 -16z m513 -923 c85 -39 125 -114 125 -235 0 -92 -33 -164 -93 -204 -37 -25 -50 -27 -160 -31 -93 -2 -121 0 -128 10 -13 20 -11 436 1 460 10 17 22 19 113 19 78 0 111 -5 142 -19z"/>
 <path d="M4547 1832 c-16 -17 -17 -88 -17 -809 0 -753 1 -791 18 -806 15 -13 39 -17 113 -17 151 0 139 -31 139 361 0 181 3 329 8 329 6 0 54 -76 142 -227 115 -196 248 -419 264 -440 18 -24 21 -25 127 -21 59 1 111 6 115 10 26 27 2 74 -204 409 -116 190 -212 355 -212 365 0 10 13 38 28 61 15 23 56 92 92 153 36 61 86 146 112 188 25 42 65 109 87 147 23 39 46 77 51 85 51 80 100 171 100 188 0 33 -31 42 -144 42 -95 0 -107 -2 -129 -22 -14 -13 -92 -135 -174 -273 -188 -313 -246 -405 -255 -405 -5 0 -8 150 -8 334 0 398 12 366 -141 366 -80 0 -99 -3 -112 -18z"/>
 <path d="M7490 1830 c-17 -17 -20 -33 -20 -101 0 -121 -2 -119 140 -119 94 0 122 -3 134 -16 14 -14 16 -78 16 -562 0 -479 -2 -550 -16 -570 -14 -21 -23 -22 -129 -22 -140 0 -145 -4 -145 -122 0 -127 -31 -118 423 -118 452 0 417 -10 417 119 0 123 2 121 -138 121 -79 0 -122 4 -130 12 -9 9 -12 150 -12 575 0 546 1 563 19 573 11 5 69 10 128 10 72 0 113 4 121 12 8 8 12 46 12 104 0 85 -2 94 -22 108 -19 14 -74 16 -400 16 -365 0 -379 -1 -398 -20z"/>
 <path d="M8890 1830 c-20 -20 -20 -33 -20 -805 0 -924 -17 -825 138 -825 63 0 104 4 115 12 9 7 58 121 110 253 219 558 319 805 325 805 4 0 6 -232 4 -517 -2 -471 -1 -518 14 -535 23 -24 177 -27 212 -2 l22 15 0 788 c0 664 -2 790 -14 807 -12 16 -29 20 -110 22 -72 3 -102 0 -119 -11 -16 -11 -73 -148 -227 -546 -113 -292 -209 -531 -214 -531 -5 0 -7 216 -4 518 3 329 2 525 -5 539 -12 27 -34 33 -129 33 -65 0 -81 -3 -98 -20z"/>
 <path d="M197 1822 c-16 -17 -17 -87 -17 -808 0 -601 3 -793 12 -802 16 -16 220 -16 236 0 9 9 12 149 12 570 0 455 2 558 13 558 8 0 46 -79 92 -192 82 -203 97 -230 116 -211 6 6 45 95 87 198 43 103 82 188 87 189 7 1 11 -189 13 -548 1 -385 5 -553 13 -563 8 -9 41 -13 120 -13 100 0 109 2 123 22 14 20 16 113 16 805 l0 782 -22 15 c-17 12 -48 16 -125 16 -96 0 -104 -1 -118 -23 -8 -13 -55 -122 -104 -242 -49 -121 -95 -221 -103 -223 -8 -1 -22 22 -37 60 -79 210 -164 414 -174 420 -7 4 -60 8 -118 8 -90 0 -108 -3 -122 -18z"/>
 <path d="M7230 43 c0 -32 21 -33 655 -31 l630 3 -626 5 c-510 4 -629 8 -642 19 -10 7 -17 9 -17 4z"/>
 <path d="M8670 44 c0 -33 17 -34 655 -32 l630 3 -633 5 c-548 4 -634 7 -642 20 -5 8 -10 10 -10 4z"/>
 <path d="M10110 44 c0 -33 17 -34 655 -32 l630 3 -633 5 c-548 4 -634 7 -642 20 -5 8 -10 10 -10 4z"/>
 <path d="M12 29 c4 -12 103 -14 644 -14 l639 0 -625 5 c-344 3 -633 9 -644 14 -14 7 -18 6 -14 -5z"/>
 <path d="M1452 28 c4 -10 141 -13 644 -13 l639 0 -625 2 c-396 2 -628 7 -634 13 -14 14 -28 12 -24 -2z"/>
 <path d="M2892 29 c4 -12 107 -14 644 -14 l639 0 -630 5 c-346 3 -636 9 -644 14 -10 6 -12 5 -9 -5z"/>
 <path d="M4329 27 c12 -16 63 -17 645 -15 l631 3 -625 5 c-356 3 -634 9 -645 14 -18 9 -19 8 -6 -7z"/>
 <path d="M5789 27 c12 -16 63 -17 645 -15 l631 3 -625 5 c-356 3 -634 9 -645 14 -18 9 -19 8 -6 -7z"/>
 </g>

</svg>